<svg id="svg" version="1.1" xmlns="http://www.w3.org/2000/svg" xmlns:xlink="http://www.w3.org/1999/xlink" width="400" height="244.17151475975007" viewBox="0, 0, 400,244.17151475975007"><g id="svgg"><path id="path0" d="M72.375 16.610 C 72.260 16.657,72.167 16.875,72.167 17.096 C 72.167 18.672,80.094 21.309,81.277 20.127 C 82.492 18.914,74.495 15.755,72.375 16.610 M39.833 21.360 C 30.263 22.186,30.872 27.477,41.280 33.931 C 44.801 36.114,45.286 36.315,43.221 34.733 C 38.513 31.128,37.663 27.272,41.250 25.796 C 43.644 24.811,49.657 24.375,53.417 24.914 C 53.783 24.967,54.946 25.124,56.000 25.263 C 64.547 26.393,74.888 29.274,84.667 33.251 C 87.278 34.313,91.411 36.312,91.275 36.447 C 91.214 36.508,91.634 36.818,92.207 37.136 C 92.781 37.455,93.381 37.828,93.542 37.967 C 93.804 38.193,93.833 38.190,93.833 37.935 C 93.833 37.627,93.121 36.833,92.845 36.833 C 92.752 36.833,91.695 36.270,90.496 35.581 C 85.662 32.803,79.707 30.007,75.000 28.303 C 61.055 23.256,47.917 20.662,39.833 21.360 M22.503 41.350 C 11.665 42.644,6.609 55.819,8.920 76.750 C 9.024 77.692,9.131 78.355,9.859 82.583 C 10.143 84.233,10.434 85.958,10.506 86.417 C 10.578 86.875,10.909 88.487,11.243 90.000 C 12.349 95.021,12.767 96.787,13.067 97.698 C 13.197 98.093,13.357 98.679,13.422 99.000 C 13.637 100.053,14.398 101.349,14.467 100.780 C 14.499 100.521,14.444 100.079,14.346 99.797 C 14.247 99.514,14.166 99.014,14.165 98.683 C 14.164 98.353,14.051 97.671,13.915 97.167 C 13.568 95.886,13.002 92.734,12.759 90.737 C 12.647 89.814,12.505 88.977,12.444 88.877 C 12.329 88.691,12.081 86.838,11.836 84.333 C 11.760 83.554,11.618 82.242,11.521 81.417 C 10.875 75.946,10.588 68.005,10.899 64.167 C 11.036 62.469,11.332 59.626,11.419 59.167 C 11.463 58.938,11.540 58.450,11.590 58.083 C 13.000 47.829,18.654 41.961,27.156 41.926 L 29.563 41.917 28.123 41.647 C 26.184 41.284,24.014 41.169,22.503 41.350 M70.167 51.816 C 60.167 54.553,55.182 65.253,54.143 86.213 C 53.905 91.001,54.128 92.909,54.477 89.083 C 54.724 86.389,54.984 83.653,55.088 82.667 C 56.982 64.694,62.031 54.864,70.917 51.850 C 72.145 51.434,71.647 51.411,70.167 51.816 M93.833 69.836 C 90.767 70.367,88.290 72.655,87.387 75.789 C 87.027 77.039,86.850 88.788,87.167 90.413 C 87.713 93.212,90.405 95.973,93.355 96.758 C 94.100 96.956,96.875 96.996,109.958 96.998 L 125.667 97.000 125.667 93.500 L 125.667 90.000 109.917 90.000 L 94.167 90.000 94.167 83.250 L 94.167 76.500 109.917 76.500 L 125.667 76.500 125.667 73.083 L 125.667 69.667 110.125 69.686 C 101.577 69.697,94.246 69.764,93.833 69.836 M135.833 69.775 C 131.204 70.470,128.118 73.242,127.641 77.135 C 127.310 79.835,127.547 89.869,127.973 91.167 C 128.807 93.711,130.969 95.809,133.583 96.610 C 134.919 97.020,157.743 97.086,159.333 96.686 C 162.359 95.923,165.135 93.046,165.676 90.113 C 165.995 88.379,165.808 76.761,165.444 75.782 C 164.381 72.918,161.725 70.479,159.052 69.913 C 157.995 69.689,137.227 69.565,135.833 69.775 M169.000 83.333 L 169.000 97.000 184.712 97.000 C 203.591 97.000,202.926 97.087,205.763 94.260 C 208.804 91.231,209.085 87.131,206.500 83.513 C 206.226 83.129,206.227 83.083,206.512 82.596 C 208.829 78.643,207.382 72.466,203.704 70.602 C 201.872 69.674,201.722 69.667,184.674 69.667 L 169.000 69.667 169.000 83.333 M211.333 83.333 L 211.333 97.000 214.917 97.000 L 218.500 97.000 218.500 91.917 L 218.500 86.833 230.417 86.833 L 242.333 86.833 242.333 91.917 L 242.333 97.000 245.927 97.000 L 249.521 97.000 249.469 91.515 L 249.417 86.030 248.638 84.502 L 247.860 82.974 248.168 82.445 C 250.922 77.714,247.724 70.700,242.417 69.832 C 241.816 69.734,235.417 69.668,226.375 69.668 L 211.333 69.667 211.333 83.333 M267.737 69.963 C 265.435 70.779,264.171 72.330,261.460 77.667 C 255.955 88.501,253.802 92.719,252.813 94.604 C 252.183 95.807,251.667 96.876,251.667 96.979 C 251.667 97.188,256.404 97.244,258.376 97.058 L 259.501 96.952 260.019 96.018 C 260.304 95.504,261.024 94.146,261.619 93.000 C 262.215 91.854,262.850 90.673,263.031 90.375 L 263.361 89.833 269.912 89.833 L 276.464 89.833 277.206 91.125 C 278.962 94.181,279.318 94.808,279.887 95.850 L 280.489 96.951 281.619 97.058 C 282.241 97.116,283.969 97.165,285.458 97.165 C 288.175 97.167,288.496 97.093,288.021 96.575 C 287.942 96.488,286.563 93.829,284.959 90.667 C 275.492 72.007,275.095 71.346,272.667 70.189 C 271.454 69.611,269.041 69.500,267.737 69.963 M200.333 78.167 L 200.333 79.667 188.333 79.667 L 176.333 79.667 176.333 78.167 L 176.333 76.667 188.333 76.667 L 200.333 76.667 200.333 78.167 M242.167 78.250 L 242.167 79.833 230.417 79.833 L 218.667 79.833 218.667 78.250 L 218.667 76.667 230.417 76.667 L 242.167 76.667 242.167 78.250 M158.500 83.500 L 158.500 90.000 146.667 90.000 L 134.833 90.000 134.833 83.500 L 134.833 77.000 146.667 77.000 L 158.500 77.000 158.500 83.500 M271.725 80.542 L 272.852 82.667 269.926 82.667 C 268.317 82.667,267.000 82.626,267.000 82.577 C 267.000 82.432,267.684 81.131,268.003 80.672 C 268.163 80.440,268.646 79.591,269.076 78.786 L 269.857 77.322 270.228 77.869 C 270.432 78.170,271.106 79.373,271.725 80.542 M200.667 88.333 L 200.667 89.833 188.500 89.833 L 176.333 89.833 176.333 88.333 L 176.333 86.833 188.500 86.833 L 200.667 86.833 200.667 88.333 M226.800 113.311 C 225.403 113.774,224.496 114.363,223.461 115.481 C 221.838 117.234,221.930 116.422,221.871 129.542 L 221.820 141.000 224.035 141.001 C 225.253 141.002,226.868 141.050,227.624 141.109 L 228.997 141.216 229.040 131.027 L 229.083 120.837 234.083 125.807 C 246.960 138.603,248.331 139.898,249.753 140.601 C 253.551 142.478,258.067 140.680,259.397 136.761 C 259.727 135.788,259.742 135.336,259.797 124.708 L 259.853 113.667 256.261 113.667 L 252.669 113.667 252.626 123.645 L 252.583 133.623 243.333 124.457 C 238.246 119.415,233.706 115.004,233.245 114.653 C 231.248 113.134,228.845 112.634,226.800 113.311 M110.500 113.669 C 94.346 113.778,95.422 113.695,92.697 115.045 C 86.685 118.024,86.125 125.498,91.634 129.228 C 94.040 130.857,92.821 130.744,108.542 130.796 L 122.333 130.843 122.333 132.421 L 122.333 134.000 106.000 134.000 L 89.667 134.000 89.667 137.564 L 89.667 141.128 104.125 141.062 C 123.952 140.971,123.332 141.013,125.396 139.646 C 131.097 135.869,130.886 128.496,124.975 124.994 C 122.817 123.716,123.499 123.770,108.708 123.707 L 95.500 123.650 95.500 122.158 L 95.500 120.667 111.583 120.667 L 127.667 120.667 127.667 117.083 L 127.667 113.500 126.292 113.536 C 125.535 113.556,118.429 113.616,110.500 113.669 M138.667 113.678 C 134.987 114.018,131.988 116.614,131.250 120.098 C 130.896 121.770,130.890 133.913,131.242 135.085 C 131.756 136.793,133.968 139.285,135.818 140.242 C 137.229 140.972,137.770 140.994,154.042 140.997 L 169.500 141.000 169.500 137.500 L 169.500 134.000 153.833 134.000 L 138.167 134.000 138.167 127.250 L 138.167 120.500 153.833 120.500 L 169.500 120.500 169.500 117.000 L 169.500 113.500 154.792 113.523 C 146.702 113.536,139.446 113.605,138.667 113.678 M171.500 127.333 L 171.500 141.167 175.333 141.167 L 179.167 141.167 179.167 127.333 L 179.167 113.500 175.333 113.500 L 171.500 113.500 171.500 127.333 M187.889 113.750 C 185.472 114.275,182.833 116.672,181.847 119.236 C 181.467 120.225,181.362 133.013,181.723 134.395 C 182.403 136.996,185.216 139.931,187.792 140.725 C 188.890 141.063,189.274 141.073,204.208 141.126 L 219.500 141.181 219.500 137.424 L 219.500 133.667 204.083 133.667 L 188.667 133.667 188.667 132.333 L 188.667 131.000 195.958 131.000 C 199.969 131.000,206.906 130.950,211.375 130.889 L 219.500 130.779 219.500 127.223 L 219.500 123.667 204.000 123.667 L 188.500 123.667 188.500 122.167 L 188.500 120.667 204.000 120.667 L 219.500 120.667 219.500 117.083 L 219.500 113.500 204.208 113.513 C 192.085 113.524,188.704 113.573,187.889 113.750 M261.833 117.083 L 261.833 120.667 269.640 120.667 L 277.447 120.667 277.556 124.792 C 277.617 127.060,277.666 131.635,277.666 134.958 L 277.667 141.000 281.167 141.000 L 284.667 141.000 284.667 130.833 L 284.667 120.667 292.583 120.667 L 300.500 120.667 300.500 117.083 L 300.500 113.500 281.167 113.500 L 261.833 113.500 261.833 117.083 M302.667 127.333 L 302.667 141.167 306.500 141.167 L 310.333 141.167 310.333 127.333 L 310.333 113.500 306.500 113.500 L 302.667 113.500 302.667 127.333 M351.833 127.333 L 351.833 141.167 355.667 141.167 L 359.500 141.167 359.500 127.333 L 359.500 113.500 355.667 113.500 L 351.833 113.500 351.833 127.333 M369.083 113.674 C 365.435 114.018,362.490 116.605,361.745 120.122 C 361.397 121.762,361.393 133.925,361.740 135.077 C 362.390 137.238,364.990 139.860,367.242 140.627 C 368.010 140.888,369.474 140.917,384.042 140.961 L 400.000 141.010 400.000 137.505 L 400.000 134.000 384.333 134.000 L 368.667 134.000 368.667 127.250 L 368.667 120.500 384.333 120.500 L 400.000 120.500 400.000 117.000 L 400.000 113.500 385.208 113.524 C 377.073 113.537,369.817 113.604,369.083 113.674 M320.496 113.845 C 317.310 114.109,315.194 115.441,313.578 118.198 C 312.518 120.008,312.505 120.157,312.502 131.125 L 312.500 141.000 316.000 141.000 L 319.500 141.000 319.500 135.833 L 319.500 130.667 334.583 130.667 L 349.667 130.667 349.667 127.167 L 349.667 123.667 334.583 123.667 L 319.500 123.667 319.500 122.250 L 319.500 120.833 334.667 120.833 L 349.833 120.833 349.833 117.250 L 349.833 113.667 335.958 113.690 C 328.327 113.703,321.369 113.773,320.496 113.845 M45.456 165.375 C 45.507 165.581,45.604 165.825,45.671 165.917 C 45.739 166.008,45.849 166.346,45.916 166.667 C 45.982 166.987,46.287 167.737,46.594 168.333 C 46.901 168.929,47.622 170.392,48.197 171.583 C 48.772 172.775,49.413 173.982,49.621 174.266 C 49.829 174.549,50.000 174.824,50.000 174.876 C 50.000 175.356,53.754 180.391,55.994 182.915 C 56.940 183.981,60.860 187.841,61.920 188.750 C 62.454 189.208,62.972 189.661,63.071 189.755 C 63.518 190.184,66.802 192.805,67.250 193.091 C 67.525 193.266,67.787 193.456,67.833 193.514 C 67.879 193.571,68.404 193.952,69.000 194.359 C 69.596 194.767,70.476 195.378,70.957 195.717 C 71.437 196.056,71.869 196.333,71.916 196.333 C 71.964 196.333,72.321 196.564,72.710 196.846 C 73.099 197.128,74.129 197.775,75.000 198.284 C 75.871 198.793,77.033 199.480,77.583 199.809 C 78.401 200.299,84.378 203.336,86.662 204.422 C 89.315 205.684,96.713 208.418,99.750 209.258 C 100.300 209.410,100.938 209.596,101.167 209.672 C 103.455 210.431,109.441 211.848,111.417 212.097 C 111.875 212.155,112.298 212.231,112.356 212.266 C 112.460 212.329,113.986 212.558,115.583 212.750 C 116.042 212.806,116.717 212.891,117.083 212.941 C 120.173 213.357,127.121 213.562,130.917 213.349 C 137.071 213.003,145.525 210.870,148.917 208.808 C 149.192 208.641,149.576 208.433,149.772 208.347 C 150.190 208.162,152.545 206.670,152.667 206.513 C 152.712 206.454,153.125 206.111,153.583 205.750 C 154.491 205.036,156.833 202.770,156.833 202.605 C 156.833 202.516,157.028 202.266,157.750 201.429 C 158.042 201.091,158.333 200.597,158.519 200.125 C 158.618 199.873,158.758 199.667,158.829 199.667 C 159.010 199.667,160.787 194.899,160.915 194.068 C 160.973 193.693,161.050 193.056,161.086 192.651 C 161.122 192.247,161.204 191.654,161.269 191.333 C 161.949 187.983,160.707 182.516,158.033 177.083 C 157.808 176.625,157.520 176.167,157.395 176.065 C 157.269 175.963,157.167 175.794,157.167 175.689 C 157.167 175.583,156.935 175.179,156.652 174.790 L 156.137 174.083 156.239 174.750 C 156.295 175.117,156.373 175.529,156.411 175.667 C 156.716 176.759,156.866 181.387,156.635 182.583 C 156.247 184.589,156.058 185.260,155.362 187.083 C 154.943 188.183,154.502 189.182,154.383 189.303 C 154.264 189.424,154.121 189.706,154.066 189.928 C 154.010 190.151,153.902 190.333,153.826 190.333 C 153.751 190.333,153.637 190.502,153.574 190.708 C 153.409 191.247,151.769 193.258,150.766 194.152 C 150.500 194.389,150.125 194.736,149.933 194.923 C 149.443 195.398,147.393 196.957,146.951 197.190 C 146.749 197.296,146.546 197.428,146.500 197.483 C 146.332 197.685,143.726 199.027,142.583 199.500 C 142.125 199.690,141.612 199.922,141.443 200.017 C 140.774 200.391,135.234 201.998,134.284 202.093 C 133.936 202.128,133.586 202.197,133.506 202.246 C 133.282 202.385,128.613 202.995,126.750 203.130 C 123.542 203.361,114.639 203.209,114.162 202.914 C 114.108 202.880,113.655 202.839,113.157 202.823 C 112.658 202.806,111.950 202.732,111.583 202.659 C 111.217 202.585,110.504 202.478,110.000 202.420 C 109.496 202.362,108.971 202.285,108.833 202.250 C 108.696 202.215,108.171 202.139,107.667 202.081 C 107.162 202.024,106.337 201.877,105.833 201.755 C 105.329 201.633,104.654 201.488,104.333 201.432 C 104.013 201.377,103.600 201.296,103.417 201.252 C 100.807 200.625,98.750 200.095,97.250 199.663 C 96.242 199.373,95.192 199.078,94.917 199.008 C 94.642 198.938,93.854 198.679,93.167 198.432 C 92.479 198.186,91.796 197.956,91.648 197.923 C 91.501 197.889,90.563 197.551,89.565 197.171 C 88.567 196.792,87.225 196.287,86.583 196.050 C 85.942 195.812,85.342 195.561,85.250 195.492 C 85.158 195.423,84.446 195.109,83.667 194.795 C 80.445 193.497,75.282 190.920,72.429 189.186 C 71.807 188.809,71.257 188.500,71.205 188.500 C 71.105 188.500,69.556 187.498,66.677 185.573 C 63.695 183.579,62.833 182.959,62.833 182.810 C 62.833 182.731,62.754 182.667,62.658 182.667 C 62.507 182.667,61.093 181.593,59.669 180.398 C 55.768 177.121,52.622 173.963,49.495 170.182 C 48.752 169.284,48.007 168.257,46.552 166.125 C 45.781 164.995,45.279 164.652,45.456 165.375 M22.500 185.490 C 22.500 185.576,22.725 185.892,23.000 186.194 C 23.275 186.495,23.500 186.865,23.500 187.017 C 23.500 190.240,30.743 198.930,37.100 203.333 C 40.598 205.756,41.377 206.262,44.750 208.306 C 48.962 210.858,54.738 213.756,61.083 216.502 C 62.183 216.978,63.308 217.465,63.583 217.584 C 63.858 217.704,64.646 218.003,65.333 218.250 C 66.021 218.497,66.883 218.833,67.250 218.995 C 68.168 219.403,71.486 220.619,73.000 221.102 C 73.688 221.321,74.380 221.576,74.539 221.667 C 74.699 221.759,74.912 221.833,75.014 221.833 C 75.116 221.833,75.436 221.938,75.725 222.065 C 76.014 222.193,77.150 222.574,78.250 222.911 C 79.350 223.249,80.512 223.629,80.833 223.757 C 81.426 223.993,92.904 227.230,93.667 227.376 C 93.896 227.420,94.960 227.687,96.032 227.971 C 97.104 228.254,98.904 228.683,100.032 228.924 C 102.186 229.385,102.685 229.495,104.583 229.923 C 105.225 230.068,105.900 230.213,106.083 230.246 C 106.267 230.279,107.054 230.429,107.833 230.579 C 109.556 230.911,109.435 230.889,112.000 231.348 C 113.146 231.553,114.164 231.817,114.262 231.935 C 114.361 232.054,114.586 232.148,114.762 232.144 C 115.180 232.137,116.532 232.334,116.678 232.423 C 116.740 232.462,117.569 232.612,118.520 232.757 C 123.737 233.553,123.498 233.519,126.083 233.830 C 128.297 234.096,129.056 234.185,129.667 234.250 C 129.987 234.285,130.700 234.362,131.250 234.423 C 131.800 234.483,132.512 234.558,132.833 234.588 C 134.485 234.745,135.979 234.878,136.500 234.915 C 137.081 234.957,139.268 235.110,141.333 235.255 C 142.534 235.339,147.726 235.638,148.250 235.653 C 150.293 235.713,161.660 235.657,162.417 235.583 C 162.967 235.529,164.054 235.453,164.833 235.413 C 166.467 235.330,167.516 235.252,169.500 235.066 C 170.279 234.992,171.235 234.929,171.625 234.925 C 172.014 234.920,172.333 234.879,172.333 234.833 C 172.333 234.787,172.502 234.743,172.708 234.734 C 172.915 234.725,173.496 234.667,174.000 234.604 C 174.504 234.542,175.217 234.467,175.583 234.438 C 175.950 234.409,176.662 234.303,177.167 234.202 C 177.671 234.102,178.646 233.932,179.333 233.825 C 181.160 233.540,182.781 233.213,183.917 232.900 C 184.467 232.749,185.217 232.569,185.583 232.502 C 185.950 232.434,186.461 232.294,186.719 232.189 C 186.977 232.085,187.372 232.000,187.596 232.000 C 187.821 232.000,188.135 231.934,188.294 231.853 C 188.453 231.772,189.483 231.419,190.583 231.067 C 191.683 230.716,192.715 230.320,192.875 230.188 C 193.035 230.056,193.167 230.007,193.167 230.078 C 193.167 230.149,193.270 230.122,193.396 230.018 C 193.521 229.913,193.746 229.874,193.896 229.932 C 194.081 230.003,194.167 229.945,194.167 229.750 C 194.167 229.565,194.254 229.498,194.417 229.560 C 194.554 229.613,194.667 229.576,194.667 229.477 C 194.667 229.378,194.779 229.341,194.917 229.394 C 195.054 229.446,195.167 229.417,195.167 229.328 C 195.167 229.239,195.268 229.167,195.391 229.167 C 195.678 229.167,196.630 228.694,196.757 228.489 C 196.810 228.404,196.965 228.333,197.101 228.333 C 197.238 228.333,197.801 228.033,198.353 227.667 C 198.905 227.300,199.460 227.000,199.585 227.000 C 199.711 227.000,199.861 226.924,199.918 226.831 C 199.976 226.737,200.112 226.712,200.220 226.774 C 200.328 226.836,200.361 226.825,200.293 226.750 C 200.136 226.577,200.469 226.167,200.765 226.167 C 201.066 226.167,205.500 221.845,205.500 221.552 C 205.500 221.426,205.617 221.278,205.760 221.223 C 205.902 221.168,205.983 221.029,205.939 220.914 C 205.895 220.799,206.043 220.544,206.269 220.348 C 206.495 220.151,206.640 219.925,206.591 219.846 C 206.542 219.766,206.613 219.487,206.750 219.226 C 206.886 218.964,206.998 218.623,206.999 218.468 C 207.000 218.313,207.083 218.135,207.184 218.072 C 207.313 217.993,207.300 217.915,207.143 217.815 C 207.005 217.728,206.991 217.671,207.107 217.669 C 207.813 217.660,207.718 212.341,206.987 210.975 C 206.896 210.806,206.858 210.667,206.902 210.667 C 206.947 210.667,206.881 210.423,206.757 210.125 C 206.632 209.827,206.538 209.546,206.548 209.500 C 206.577 209.359,205.762 207.763,205.542 207.530 C 205.427 207.409,205.333 207.177,205.333 207.014 C 205.333 206.851,205.183 206.583,205.000 206.417 C 204.817 206.251,204.667 206.048,204.667 205.967 C 204.667 205.885,204.296 205.329,203.843 204.731 C 203.391 204.133,202.997 203.579,202.968 203.501 C 202.940 203.422,202.708 203.306,202.453 203.243 L 201.990 203.128 202.120 203.856 C 202.314 204.944,202.253 207.946,202.030 208.214 C 201.926 208.340,201.807 208.624,201.766 208.846 C 201.725 209.068,201.676 209.269,201.658 209.292 C 201.640 209.315,201.606 209.408,201.583 209.500 C 201.560 209.592,201.523 209.704,201.500 209.750 C 201.477 209.796,201.443 209.890,201.424 209.958 C 201.297 210.414,200.995 210.963,200.769 211.151 C 200.623 211.272,200.541 211.431,200.586 211.504 C 200.631 211.577,200.441 211.827,200.164 212.060 C 199.888 212.293,199.681 212.552,199.706 212.636 C 199.750 212.788,196.329 216.098,195.799 216.417 C 195.646 216.508,194.837 217.052,194.002 217.624 C 193.167 218.196,192.299 218.711,192.073 218.767 C 191.848 218.824,191.622 218.937,191.572 219.018 C 191.522 219.100,191.376 219.167,191.247 219.167 C 191.119 219.167,190.633 219.392,190.167 219.667 C 189.700 219.942,189.240 220.167,189.143 220.167 C 189.046 220.167,188.731 220.270,188.442 220.396 C 187.364 220.866,185.176 221.667,184.970 221.667 C 184.853 221.667,184.380 221.809,183.920 221.983 C 182.523 222.511,179.807 223.220,177.500 223.660 C 170.503 224.993,166.019 225.524,157.833 225.987 C 153.381 226.239,141.709 226.114,137.000 225.763 C 136.221 225.705,134.083 225.546,132.250 225.410 C 129.326 225.192,124.029 224.655,122.333 224.405 C 122.013 224.357,120.625 224.173,119.250 223.996 C 116.379 223.626,112.368 223.029,112.000 222.918 C 111.862 222.876,111.037 222.731,110.167 222.596 C 107.673 222.207,104.131 221.553,101.500 220.994 C 94.253 219.453,93.123 219.203,91.750 218.835 C 81.899 216.193,80.459 215.786,74.583 213.985 C 72.864 213.458,70.669 212.733,70.083 212.499 C 69.900 212.426,69.262 212.200,68.667 211.997 C 68.071 211.795,67.358 211.531,67.083 211.412 C 66.808 211.292,66.096 211.032,65.500 210.833 C 64.904 210.633,63.204 209.990,61.722 209.402 C 60.239 208.814,58.980 208.333,58.923 208.333 C 58.866 208.333,58.354 208.117,57.785 207.854 C 57.216 207.590,56.188 207.137,55.500 206.848 C 54.813 206.558,53.875 206.143,53.417 205.924 C 52.958 205.705,52.058 205.288,51.417 204.998 C 50.055 204.382,46.332 202.523,44.417 201.502 C 43.186 200.846,42.262 200.325,39.833 198.923 C 37.961 197.842,34.202 195.362,33.002 194.417 C 32.653 194.142,31.949 193.621,31.439 193.259 C 30.928 192.897,30.473 192.503,30.427 192.384 C 30.381 192.264,30.257 192.167,30.152 192.167 C 29.645 192.167,24.000 186.787,24.000 186.304 C 24.000 185.944,23.286 185.333,22.864 185.333 C 22.664 185.333,22.500 185.404,22.500 185.490 " stroke="none" fill="#fbfbfb" fill-rule="evenodd"></path><path id="path1" d="M64.375 0.115 C 63.619 0.151,63.000 0.252,63.000 0.340 C 63.000 0.428,62.704 0.500,62.343 0.500 C 61.982 0.500,61.640 0.575,61.583 0.667 C 61.527 0.758,61.190 0.833,60.835 0.833 C 60.481 0.833,60.078 0.946,59.940 1.083 C 59.803 1.221,59.502 1.333,59.272 1.333 C 59.041 1.333,58.807 1.408,58.750 1.500 C 58.693 1.592,58.424 1.667,58.152 1.667 C 57.865 1.667,57.616 1.772,57.560 1.917 C 57.495 2.086,57.229 2.167,56.732 2.167 C 56.329 2.167,56.000 2.242,56.000 2.333 C 56.000 2.425,55.737 2.500,55.417 2.500 C 55.096 2.500,54.833 2.575,54.833 2.667 C 54.833 2.758,54.681 2.833,54.495 2.833 C 54.309 2.833,54.113 2.946,54.060 3.083 C 54.008 3.221,53.785 3.333,53.566 3.333 C 53.346 3.333,53.167 3.408,53.167 3.500 C 53.167 3.592,53.017 3.667,52.833 3.667 C 52.650 3.667,52.500 3.742,52.500 3.833 C 52.500 3.925,52.348 4.000,52.161 4.000 C 51.975 4.000,51.780 4.112,51.727 4.250 C 51.674 4.387,51.452 4.500,51.232 4.500 C 51.013 4.500,50.833 4.575,50.833 4.667 C 50.833 4.758,50.683 4.833,50.500 4.833 C 50.317 4.833,50.167 4.908,50.167 5.000 C 50.167 5.092,50.014 5.167,49.828 5.167 C 49.642 5.167,49.446 5.279,49.394 5.417 C 49.341 5.554,49.118 5.667,48.899 5.667 C 48.679 5.667,48.500 5.736,48.500 5.822 C 48.500 5.907,48.331 6.003,48.125 6.034 C 47.919 6.066,47.769 6.183,47.792 6.296 C 47.816 6.414,47.657 6.500,47.417 6.500 C 47.187 6.500,47.000 6.575,47.000 6.667 C 47.000 6.758,46.844 6.833,46.653 6.833 C 46.462 6.833,46.051 7.096,45.739 7.417 C 45.427 7.737,45.059 8.000,44.920 8.000 C 44.780 8.000,44.667 8.075,44.667 8.167 C 44.667 8.258,44.527 8.333,44.357 8.333 C 44.186 8.333,43.906 8.521,43.734 8.750 C 43.562 8.979,43.283 9.167,43.115 9.167 C 42.779 9.167,42.333 9.540,42.333 9.821 C 42.333 9.920,42.162 10.000,41.953 10.000 C 41.745 10.000,41.465 10.150,41.333 10.333 C 41.201 10.517,40.980 10.667,40.843 10.667 C 40.705 10.667,40.164 11.117,39.641 11.667 C 39.117 12.217,38.567 12.667,38.418 12.667 C 38.147 12.667,36.500 14.263,36.500 14.526 C 36.500 14.603,36.423 14.667,36.328 14.667 C 36.166 14.667,34.500 16.292,34.500 16.450 C 34.500 16.654,33.983 17.000,33.679 17.000 C 33.476 17.000,33.333 17.108,33.333 17.261 C 33.333 17.405,33.071 17.798,32.751 18.136 C 32.431 18.474,32.169 18.806,32.168 18.875 C 32.167 18.944,32.021 19.000,31.844 19.000 C 31.655 19.000,30.794 19.730,29.777 20.750 C 28.818 21.712,27.930 22.500,27.804 22.500 C 27.677 22.500,27.465 22.650,27.333 22.833 C 27.201 23.017,26.985 23.167,26.852 23.167 C 26.720 23.167,26.655 23.210,26.708 23.264 C 26.853 23.409,26.207 24.000,25.905 24.000 C 25.657 24.000,25.167 24.375,25.167 24.564 C 25.167 24.794,24.281 25.500,23.992 25.500 C 23.813 25.500,23.667 25.567,23.667 25.649 C 23.667 25.730,23.479 25.844,23.250 25.902 C 23.021 25.959,22.833 26.080,22.833 26.170 C 22.833 26.260,22.646 26.333,22.417 26.333 C 22.083 26.333,22.000 26.417,22.000 26.750 C 22.000 27.051,21.910 27.167,21.677 27.167 C 21.499 27.167,21.307 27.242,21.250 27.333 C 21.193 27.425,21.001 27.500,20.823 27.500 C 20.646 27.500,20.500 27.575,20.500 27.667 C 20.500 27.758,20.383 27.833,20.240 27.833 C 20.097 27.833,20.027 27.908,20.083 28.000 C 20.140 28.092,20.073 28.167,19.934 28.167 C 19.795 28.167,19.476 28.372,19.225 28.624 C 18.973 28.875,18.646 29.060,18.498 29.035 C 18.349 29.010,18.128 29.178,18.003 29.411 C 17.879 29.643,17.677 29.833,17.555 29.833 C 17.433 29.833,17.333 29.908,17.333 30.000 C 17.333 30.092,17.222 30.167,17.085 30.167 C 16.796 30.167,10.018 36.880,9.708 37.473 C 9.594 37.692,9.500 37.975,9.500 38.102 C 9.500 38.229,9.438 38.333,9.361 38.333 C 9.285 38.333,9.123 38.521,9.000 38.750 C 8.877 38.979,8.677 39.167,8.555 39.167 C 8.433 39.167,8.333 39.336,8.333 39.544 C 8.333 39.751,8.146 40.061,7.917 40.234 C 7.688 40.406,7.500 40.686,7.500 40.857 C 7.500 41.027,7.425 41.167,7.333 41.167 C 7.242 41.167,7.167 41.317,7.167 41.500 C 7.167 41.683,7.092 41.833,7.000 41.833 C 6.908 41.833,6.833 42.003,6.833 42.210 C 6.833 42.418,6.646 42.728,6.417 42.900 C 6.188 43.073,6.000 43.353,6.000 43.523 C 6.000 43.694,5.925 43.833,5.833 43.833 C 5.742 43.833,5.667 44.021,5.667 44.250 C 5.667 44.509,5.572 44.667,5.417 44.667 C 5.279 44.667,5.167 44.812,5.167 44.990 C 5.167 45.168,5.092 45.360,5.000 45.417 C 4.908 45.473,4.833 45.778,4.833 46.093 C 4.833 46.409,4.758 46.667,4.667 46.667 C 4.575 46.667,4.500 46.817,4.500 47.000 C 4.500 47.183,4.425 47.333,4.333 47.333 C 4.242 47.333,4.167 47.521,4.167 47.750 C 4.167 48.009,4.072 48.167,3.917 48.167 C 3.743 48.167,3.667 48.341,3.667 48.736 C 3.667 49.049,3.575 49.336,3.462 49.374 C 3.346 49.413,3.275 49.669,3.298 49.971 C 3.327 50.350,3.267 50.500,3.086 50.500 C 2.908 50.500,2.833 50.673,2.833 51.083 C 2.833 51.404,2.758 51.667,2.667 51.667 C 2.575 51.667,2.500 52.004,2.500 52.417 C 2.500 52.829,2.425 53.167,2.333 53.167 C 2.242 53.167,2.167 53.354,2.167 53.583 C 2.167 53.843,2.072 54.000,1.917 54.000 C 1.732 54.000,1.667 54.193,1.667 54.740 C 1.667 55.147,1.592 55.527,1.500 55.583 C 1.408 55.640,1.333 56.137,1.333 56.688 C 1.333 57.357,1.250 57.774,1.083 57.940 C 0.918 58.106,0.833 58.521,0.833 59.169 C 0.833 59.707,0.758 60.193,0.667 60.250 C 0.574 60.307,0.500 61.074,0.500 61.977 C 0.500 63.053,0.430 63.670,0.292 63.808 C -0.011 64.111,-0.011 77.556,0.292 77.858 C 0.430 77.997,0.500 78.616,0.500 79.700 C 0.500 80.678,0.567 81.333,0.667 81.333 C 0.763 81.333,0.833 81.857,0.833 82.571 C 0.833 83.450,0.906 83.882,1.083 84.060 C 1.255 84.231,1.333 84.653,1.333 85.405 C 1.333 86.024,1.406 86.500,1.500 86.500 C 1.592 86.500,1.667 86.791,1.667 87.146 C 1.667 87.517,1.773 87.881,1.917 88.000 C 2.054 88.114,2.167 88.423,2.167 88.687 C 2.167 88.951,2.242 89.167,2.333 89.167 C 2.425 89.167,2.500 89.542,2.500 90.000 C 2.500 90.458,2.575 90.833,2.667 90.833 C 2.758 90.833,2.833 91.171,2.833 91.583 C 2.833 92.139,2.898 92.333,3.083 92.333 C 3.258 92.333,3.333 92.509,3.333 92.917 C 3.333 93.237,3.408 93.500,3.500 93.500 C 3.592 93.500,3.667 93.763,3.667 94.083 C 3.667 94.479,3.744 94.667,3.906 94.667 C 4.066 94.667,4.139 94.841,4.129 95.200 C 4.121 95.493,4.201 95.761,4.307 95.797 C 4.413 95.832,4.500 96.117,4.500 96.431 C 4.500 96.744,4.575 97.000,4.667 97.000 C 4.758 97.000,4.833 97.263,4.833 97.583 C 4.833 97.904,4.908 98.167,5.000 98.167 C 5.092 98.167,5.167 98.429,5.167 98.750 C 5.167 99.157,5.242 99.333,5.417 99.333 C 5.591 99.333,5.667 99.509,5.667 99.917 C 5.667 100.237,5.742 100.500,5.833 100.500 C 5.925 100.500,6.000 100.652,6.000 100.839 C 6.000 101.025,6.113 101.220,6.250 101.273 C 6.388 101.326,6.500 101.511,6.500 101.684 C 6.500 101.858,6.575 102.000,6.667 102.000 C 6.758 102.000,6.833 102.263,6.833 102.583 C 6.833 102.904,6.908 103.167,7.000 103.167 C 7.092 103.167,7.167 103.354,7.167 103.583 C 7.167 103.814,7.263 104.000,7.383 104.000 C 7.533 104.000,7.579 104.181,7.532 104.583 C 7.479 105.037,7.523 105.167,7.732 105.167 C 7.907 105.167,8.000 105.311,8.000 105.583 C 8.000 105.813,8.075 106.000,8.167 106.000 C 8.258 106.000,8.333 106.150,8.333 106.333 C 8.333 106.528,8.444 106.667,8.601 106.667 C 8.768 106.667,8.834 106.759,8.775 106.912 C 8.723 107.047,8.790 107.266,8.924 107.400 C 9.057 107.534,9.167 107.798,9.167 107.988 C 9.167 108.178,9.242 108.333,9.333 108.333 C 9.425 108.333,9.500 108.483,9.500 108.667 C 9.500 108.850,9.611 109.000,9.746 109.000 C 9.927 109.000,9.967 109.125,9.896 109.476 C 9.823 109.845,9.899 110.051,10.234 110.385 C 10.472 110.623,10.667 110.934,10.667 111.076 C 10.667 111.217,10.742 111.333,10.833 111.333 C 10.925 111.333,11.000 111.486,11.000 111.672 C 11.000 111.858,11.117 112.055,11.260 112.110 C 11.402 112.165,11.481 112.310,11.433 112.433 C 11.386 112.556,11.457 112.766,11.590 112.900 C 11.724 113.034,11.833 113.263,11.833 113.410 C 11.833 113.557,11.941 113.718,12.073 113.769 C 12.205 113.820,12.272 113.967,12.222 114.096 C 12.173 114.225,12.252 114.377,12.399 114.433 C 12.546 114.490,12.667 114.715,12.667 114.934 C 12.667 115.154,12.742 115.333,12.833 115.333 C 12.925 115.333,13.000 115.473,13.000 115.643 C 13.000 115.814,13.187 116.094,13.417 116.266 C 13.712 116.488,13.833 116.737,13.833 117.123 C 13.833 117.477,13.914 117.667,14.066 117.667 C 14.316 117.667,14.574 118.119,14.518 118.461 C 14.500 118.576,14.605 118.717,14.752 118.774 C 14.899 118.830,14.979 118.981,14.930 119.109 C 14.840 119.343,15.371 120.000,15.651 120.000 C 15.734 120.000,15.763 120.149,15.715 120.331 C 15.661 120.541,15.727 120.700,15.898 120.766 C 16.046 120.823,16.167 121.011,16.167 121.184 C 16.167 121.358,16.279 121.500,16.417 121.500 C 16.554 121.500,16.667 121.612,16.667 121.750 C 16.667 121.888,16.747 122.000,16.845 122.000 C 16.942 122.000,16.979 122.138,16.925 122.308 C 16.859 122.516,16.963 122.717,17.247 122.931 C 17.478 123.104,17.667 123.329,17.667 123.431 C 17.667 123.741,18.181 124.667,18.353 124.667 C 18.442 124.667,18.502 124.760,18.488 124.875 C 18.435 125.280,18.502 125.500,18.679 125.500 C 18.979 125.500,19.258 125.897,19.234 126.292 C 19.222 126.508,19.308 126.667,19.439 126.667 C 19.564 126.667,19.667 126.742,19.667 126.833 C 19.667 126.925,19.769 127.000,19.894 127.000 C 20.046 127.000,20.094 127.137,20.041 127.417 C 19.983 127.719,20.033 127.833,20.225 127.833 C 20.399 127.833,20.454 127.925,20.388 128.099 C 20.323 128.267,20.448 128.504,20.726 128.744 C 20.968 128.952,21.167 129.215,21.167 129.328 C 21.167 129.441,21.429 129.796,21.750 130.117 C 22.071 130.437,22.333 130.807,22.333 130.939 C 22.333 131.070,22.441 131.218,22.573 131.269 C 22.705 131.320,22.769 131.474,22.716 131.613 C 22.658 131.764,22.795 132.016,23.059 132.244 C 23.302 132.452,23.500 132.734,23.500 132.871 C 23.500 133.008,23.687 133.261,23.917 133.433 C 24.146 133.605,24.333 133.915,24.333 134.123 C 24.333 134.330,24.414 134.500,24.512 134.500 C 24.775 134.500,25.120 134.891,25.048 135.107 C 25.013 135.210,25.101 135.410,25.243 135.552 C 25.384 135.694,25.500 135.891,25.500 135.991 C 25.500 136.091,25.763 136.427,26.083 136.739 C 26.404 137.051,26.667 137.462,26.667 137.653 C 26.667 137.844,26.742 138.000,26.833 138.000 C 26.925 138.000,27.000 138.123,27.000 138.274 C 27.000 138.564,27.885 139.500,28.160 139.500 C 28.250 139.500,28.277 139.620,28.221 139.766 C 28.156 139.934,28.281 140.171,28.559 140.410 C 28.802 140.618,29.000 140.949,29.000 141.144 C 29.000 141.340,29.070 141.500,29.155 141.500 C 29.240 141.500,29.336 141.669,29.367 141.875 C 29.399 142.081,29.517 142.231,29.629 142.208 C 29.741 142.185,29.833 142.279,29.833 142.417 C 29.833 142.554,29.908 142.667,30.000 142.667 C 30.092 142.667,30.167 142.783,30.167 142.925 C 30.167 143.067,30.343 143.348,30.558 143.550 C 30.773 143.751,30.919 144.005,30.881 144.114 C 30.844 144.222,30.966 144.393,31.153 144.493 C 31.340 144.593,31.558 144.916,31.639 145.212 C 31.719 145.508,31.871 145.731,31.976 145.708 C 32.081 145.685,32.167 145.763,32.167 145.880 C 32.167 145.997,32.317 146.201,32.500 146.333 C 32.683 146.465,32.833 146.709,32.833 146.875 C 32.833 147.041,32.946 147.220,33.083 147.273 C 33.221 147.326,33.333 147.501,33.333 147.663 C 33.333 147.825,33.596 148.182,33.917 148.456 C 34.237 148.730,34.500 149.096,34.500 149.270 C 34.500 149.444,34.650 149.680,34.833 149.795 C 35.017 149.909,35.167 150.142,35.167 150.311 C 35.167 150.481,35.354 150.761,35.583 150.933 C 35.813 151.105,36.000 151.415,36.000 151.623 C 36.000 151.830,36.085 152.000,36.189 152.000 C 36.457 152.000,37.166 152.864,37.166 153.191 C 37.167 153.341,37.278 153.507,37.414 153.559 C 37.550 153.611,37.622 153.757,37.574 153.882 C 37.526 154.007,37.677 154.253,37.910 154.428 C 38.145 154.604,38.333 154.914,38.333 155.123 C 38.333 155.330,38.418 155.500,38.522 155.500 C 38.798 155.500,39.500 156.368,39.500 156.708 C 39.500 156.869,39.585 157.000,39.690 157.000 C 39.926 157.000,40.321 157.504,40.328 157.814 C 40.331 157.940,40.596 158.292,40.917 158.594 C 41.237 158.897,41.500 159.299,41.500 159.489 C 41.500 159.678,41.570 159.833,41.655 159.833 C 41.740 159.833,41.836 160.002,41.867 160.208 C 41.899 160.415,42.017 160.565,42.129 160.542 C 42.241 160.519,42.333 160.596,42.333 160.713 C 42.333 160.830,42.483 161.035,42.667 161.167 C 42.850 161.299,43.000 161.530,43.000 161.680 C 43.000 161.830,43.188 162.094,43.417 162.266 C 43.646 162.439,43.833 162.749,43.833 162.956 C 43.833 163.164,43.914 163.333,44.012 163.333 C 44.282 163.333,44.667 163.774,44.667 164.083 C 44.667 164.424,45.061 164.833,45.390 164.833 C 45.663 164.833,46.083 165.307,47.083 166.745 C 47.450 167.272,47.919 167.912,48.125 168.168 C 48.331 168.423,48.500 168.685,48.500 168.750 C 48.500 168.879,49.637 170.269,51.227 172.083 C 52.627 173.680,56.661 177.708,58.083 178.930 C 62.049 182.335,67.869 186.486,71.884 188.771 C 72.508 189.126,73.370 189.620,73.801 189.868 C 76.372 191.351,80.580 193.418,83.750 194.756 C 85.568 195.523,86.358 195.839,89.250 196.957 C 91.250 197.729,95.489 199.119,96.282 199.263 C 96.631 199.326,97.062 199.452,97.239 199.544 C 97.416 199.636,97.978 199.817,98.489 199.946 C 98.999 200.076,99.679 200.249,100.000 200.331 C 100.321 200.413,100.771 200.519,101.000 200.565 C 101.229 200.612,101.604 200.698,101.833 200.756 C 103.386 201.155,108.578 202.137,110.167 202.333 C 110.854 202.417,112.017 202.565,112.750 202.661 C 118.547 203.420,127.748 203.220,132.917 202.222 C 133.650 202.080,134.362 201.948,134.500 201.927 C 135.452 201.786,138.748 200.869,140.250 200.329 C 142.136 199.650,145.971 197.791,146.833 197.137 C 147.063 196.963,147.700 196.493,148.250 196.093 C 148.800 195.693,149.614 195.020,150.059 194.599 C 150.504 194.178,150.935 193.833,151.017 193.833 C 151.100 193.833,151.167 193.757,151.167 193.663 C 151.167 193.570,151.578 193.063,152.081 192.538 C 152.584 192.013,152.997 191.490,152.998 191.375 C 152.999 191.260,153.074 191.167,153.163 191.167 C 153.253 191.167,153.374 190.979,153.432 190.750 C 153.489 190.521,153.594 190.333,153.665 190.333 C 153.735 190.333,153.891 190.090,154.012 189.792 C 154.132 189.494,154.294 189.207,154.370 189.154 C 154.554 189.027,156.022 185.201,156.091 184.667 C 156.121 184.438,156.235 183.912,156.344 183.500 C 156.637 182.388,156.600 177.205,156.288 175.700 C 156.149 175.031,156.074 174.335,156.122 174.154 C 156.176 173.946,156.077 173.711,155.854 173.518 C 155.659 173.349,155.500 173.120,155.500 173.008 C 155.500 172.653,152.872 170.167,152.497 170.167 C 152.304 170.167,152.193 170.092,152.250 170.000 C 152.307 169.908,152.244 169.833,152.111 169.833 C 151.978 169.833,151.826 169.721,151.773 169.583 C 151.720 169.446,151.520 169.333,151.329 169.333 C 151.137 169.333,151.027 169.258,151.083 169.167 C 151.142 169.072,151.002 169.000,150.760 169.000 C 150.525 169.000,150.333 168.925,150.333 168.833 C 150.333 168.742,150.181 168.667,149.995 168.667 C 149.809 168.667,149.616 168.562,149.567 168.435 C 149.516 168.301,149.342 168.239,149.156 168.288 C 148.935 168.346,148.833 168.287,148.833 168.103 C 148.833 167.926,148.689 167.833,148.417 167.833 C 148.188 167.833,148.000 167.758,148.000 167.667 C 148.000 167.575,147.746 167.500,147.434 167.500 C 147.086 167.500,146.832 167.404,146.773 167.250 C 146.704 167.069,146.421 167.000,145.755 167.000 C 145.248 167.000,144.833 166.925,144.833 166.833 C 144.833 166.732,144.083 166.667,142.917 166.667 C 141.750 166.667,141.000 166.601,141.000 166.500 C 141.000 166.399,140.306 166.333,139.250 166.333 C 138.194 166.333,137.500 166.399,137.500 166.500 C 137.500 166.603,136.667 166.667,135.333 166.667 C 134.000 166.667,133.167 166.731,133.167 166.833 C 133.167 166.927,132.693 167.000,132.078 167.000 C 131.264 167.000,130.965 167.063,130.894 167.250 C 130.834 167.404,130.581 167.500,130.232 167.500 C 129.921 167.500,129.667 167.575,129.667 167.667 C 129.667 167.758,129.404 167.833,129.083 167.833 C 128.658 167.833,128.500 167.906,128.500 168.102 C 128.500 168.319,128.387 168.349,127.917 168.261 C 127.454 168.174,127.333 168.205,127.333 168.409 C 127.333 168.573,127.181 168.667,126.917 168.667 C 126.688 168.667,126.500 168.742,126.500 168.833 C 126.500 168.925,126.237 169.000,125.917 169.000 C 125.596 169.000,125.333 169.075,125.333 169.167 C 125.333 169.258,125.218 169.333,125.078 169.333 C 124.938 169.333,124.780 169.446,124.727 169.583 C 124.668 169.738,124.414 169.833,124.066 169.833 C 123.754 169.833,123.500 169.908,123.500 170.000 C 123.500 170.092,123.383 170.167,123.240 170.167 C 123.097 170.167,123.022 170.234,123.073 170.316 C 123.183 170.495,122.700 170.707,122.485 170.574 C 122.402 170.522,122.333 170.597,122.333 170.740 C 122.333 170.906,122.183 171.000,121.917 171.000 C 121.688 171.000,121.500 171.075,121.500 171.167 C 121.500 171.258,121.325 171.333,121.111 171.333 C 120.868 171.333,120.640 171.488,120.500 171.750 C 120.358 172.016,120.133 172.167,119.879 172.167 C 119.656 172.167,119.526 172.240,119.583 172.333 C 119.640 172.425,119.528 172.500,119.335 172.500 C 119.142 172.500,118.810 172.687,118.598 172.917 C 118.386 173.146,118.089 173.333,117.939 173.333 C 117.789 173.333,117.667 173.408,117.667 173.500 C 117.667 173.592,117.404 173.667,117.083 173.667 C 116.763 173.667,116.500 173.742,116.500 173.833 C 116.500 173.925,116.200 174.000,115.833 174.000 C 115.467 174.000,115.167 173.925,115.167 173.833 C 115.167 173.742,114.829 173.667,114.417 173.667 C 114.004 173.667,113.667 173.592,113.667 173.500 C 113.667 173.408,113.327 173.333,112.911 173.333 C 112.394 173.333,112.126 173.255,112.060 173.083 C 112.008 172.946,111.827 172.833,111.659 172.833 C 111.491 172.833,111.307 172.758,111.250 172.667 C 111.193 172.575,110.926 172.500,110.657 172.500 C 110.387 172.500,110.167 172.425,110.167 172.333 C 110.167 172.242,109.979 172.167,109.750 172.167 C 109.491 172.167,109.333 172.072,109.333 171.917 C 109.333 171.761,109.176 171.667,108.917 171.667 C 108.688 171.667,108.500 171.592,108.500 171.500 C 108.500 171.408,108.350 171.333,108.167 171.333 C 107.983 171.333,107.833 171.258,107.833 171.167 C 107.833 171.075,107.646 171.000,107.417 171.000 C 107.181 171.000,107.000 170.904,107.000 170.778 C 107.000 170.656,106.832 170.563,106.625 170.570 C 106.409 170.578,106.268 170.495,106.292 170.375 C 106.315 170.260,106.180 170.167,105.992 170.167 C 105.805 170.167,105.459 169.974,105.224 169.739 C 104.989 169.504,104.692 169.352,104.565 169.401 C 104.432 169.452,104.333 169.385,104.333 169.245 C 104.333 169.095,104.172 169.000,103.917 169.000 C 103.688 169.000,103.500 168.925,103.500 168.833 C 103.500 168.742,103.348 168.667,103.161 168.667 C 102.975 168.667,102.783 168.562,102.734 168.435 C 102.683 168.301,102.509 168.239,102.323 168.288 C 102.064 168.355,102.000 168.285,102.000 167.936 C 102.000 167.590,101.919 167.500,101.611 167.500 C 101.368 167.500,101.140 167.345,101.000 167.083 C 100.877 166.854,100.634 166.667,100.460 166.667 C 100.156 166.667,99.667 166.307,99.667 166.083 C 99.667 165.867,99.182 165.500,98.896 165.500 C 98.735 165.500,98.175 165.049,97.652 164.498 C 96.996 163.807,96.619 163.529,96.434 163.600 C 96.257 163.668,96.167 163.612,96.167 163.434 C 96.167 163.287,96.050 163.167,95.907 163.167 C 95.764 163.167,95.693 163.092,95.750 163.000 C 95.807 162.908,95.736 162.833,95.593 162.833 C 95.450 162.833,95.333 162.716,95.333 162.573 C 95.333 162.431,95.258 162.360,95.167 162.417 C 95.075 162.473,95.000 162.415,95.000 162.288 C 95.000 162.161,94.813 161.956,94.583 161.833 C 94.354 161.711,94.167 161.548,94.167 161.472 C 94.167 161.396,94.017 161.333,93.833 161.333 C 93.589 161.333,93.500 161.222,93.500 160.917 C 93.500 160.657,93.406 160.500,93.250 160.500 C 93.112 160.500,93.000 160.425,93.000 160.333 C 93.000 160.242,92.884 160.167,92.743 160.167 C 92.469 160.167,91.167 158.887,91.167 158.617 C 91.167 158.528,90.792 158.086,90.333 157.635 C 89.875 157.184,89.500 156.744,89.500 156.657 C 89.500 156.571,89.444 156.500,89.375 156.500 C 89.108 156.499,88.333 155.696,88.333 155.420 C 88.333 155.130,86.760 153.500,86.480 153.500 C 86.399 153.500,86.333 153.343,86.333 153.152 C 86.333 152.958,86.000 152.480,85.583 152.075 C 85.171 151.674,84.833 151.193,84.833 151.006 C 84.833 150.819,84.766 150.667,84.683 150.667 C 84.401 150.667,83.333 149.467,83.333 149.150 C 83.333 148.974,83.218 148.833,83.072 148.833 C 82.894 148.833,82.842 148.735,82.909 148.526 C 82.975 148.317,82.871 148.116,82.586 147.903 C 82.354 147.729,82.167 147.419,82.167 147.210 C 82.167 147.003,82.067 146.833,81.945 146.833 C 81.823 146.833,81.627 146.654,81.510 146.435 C 81.393 146.216,81.117 145.941,80.898 145.824 C 80.653 145.692,80.500 145.461,80.500 145.222 C 80.500 145.008,80.425 144.833,80.333 144.833 C 80.242 144.833,80.167 144.693,80.167 144.521 C 80.167 144.350,79.904 143.985,79.583 143.711 C 79.262 143.437,79.000 143.087,79.000 142.934 C 79.000 142.781,78.896 142.616,78.768 142.567 C 78.635 142.516,78.572 142.342,78.621 142.158 C 78.673 141.959,78.602 141.798,78.436 141.734 C 78.288 141.677,78.167 141.523,78.167 141.392 C 78.167 141.260,78.017 140.992,77.833 140.795 C 77.650 140.598,77.500 140.301,77.500 140.135 C 77.500 139.969,77.431 139.833,77.346 139.833 C 76.928 139.833,76.251 138.881,76.302 138.364 C 76.333 138.049,76.278 137.833,76.165 137.833 C 75.894 137.833,75.546 137.447,75.619 137.226 C 75.653 137.123,75.566 136.923,75.424 136.781 C 75.283 136.640,75.167 136.416,75.167 136.285 C 75.167 136.154,74.979 135.906,74.750 135.734 C 74.521 135.562,74.333 135.286,74.333 135.122 C 74.333 134.957,74.226 134.782,74.094 134.731 C 73.958 134.679,73.897 134.527,73.954 134.379 C 74.012 134.229,73.929 134.027,73.760 133.904 C 73.599 133.786,73.516 133.608,73.577 133.510 C 73.638 133.411,73.571 133.286,73.427 133.231 C 73.284 133.176,73.167 133.000,73.167 132.839 C 73.167 132.678,72.986 132.411,72.765 132.245 C 72.526 132.065,72.388 131.817,72.424 131.630 C 72.457 131.458,72.375 131.275,72.242 131.224 C 72.107 131.172,72.000 130.916,72.000 130.644 C 72.000 130.376,71.896 130.116,71.768 130.067 C 71.635 130.016,71.572 129.842,71.621 129.656 C 71.668 129.478,71.622 129.333,71.519 129.333 C 71.417 129.333,71.333 129.211,71.333 129.061 C 71.333 128.911,71.146 128.614,70.917 128.402 C 70.654 128.159,70.500 127.835,70.500 127.526 C 70.500 127.246,70.394 126.995,70.253 126.941 C 70.113 126.887,70.048 126.735,70.103 126.591 C 70.161 126.442,70.090 126.294,69.934 126.234 C 69.761 126.167,69.667 125.931,69.667 125.566 C 69.667 125.191,69.588 125.000,69.432 125.000 C 69.280 125.000,69.228 124.883,69.285 124.669 C 69.339 124.459,69.273 124.300,69.102 124.234 C 68.954 124.177,68.833 123.989,68.833 123.816 C 68.833 123.642,68.758 123.500,68.667 123.500 C 68.575 123.500,68.500 123.313,68.500 123.083 C 68.500 122.836,68.405 122.667,68.266 122.667 C 68.114 122.667,68.062 122.550,68.118 122.335 C 68.170 122.137,68.109 121.967,67.965 121.912 C 67.807 121.852,67.751 121.654,67.798 121.329 C 67.849 120.983,67.791 120.807,67.602 120.734 C 67.428 120.667,67.333 120.432,67.333 120.066 C 67.333 119.754,67.258 119.500,67.167 119.500 C 67.075 119.500,67.000 119.348,67.000 119.161 C 67.000 118.975,66.888 118.780,66.750 118.727 C 66.607 118.672,66.500 118.424,66.500 118.149 C 66.500 117.884,66.425 117.667,66.333 117.667 C 66.242 117.667,66.167 117.479,66.167 117.250 C 66.167 117.019,66.070 116.833,65.950 116.833 C 65.801 116.833,65.755 116.652,65.802 116.250 C 65.853 115.814,65.807 115.667,65.621 115.667 C 65.435 115.667,65.375 115.471,65.381 114.884 C 65.386 114.429,65.308 114.075,65.195 114.037 C 65.088 114.001,65.000 113.753,65.000 113.486 C 65.000 113.219,64.925 113.000,64.833 113.000 C 64.742 113.000,64.667 112.848,64.667 112.661 C 64.667 112.475,64.554 112.280,64.417 112.227 C 64.262 112.168,64.167 111.914,64.167 111.566 C 64.167 111.254,64.092 111.000,64.000 111.000 C 63.908 111.000,63.833 110.737,63.833 110.417 C 63.833 110.059,63.752 109.833,63.624 109.833 C 63.478 109.833,63.432 109.606,63.474 109.085 C 63.519 108.514,63.470 108.311,63.267 108.233 C 63.078 108.161,63.000 107.916,63.000 107.399 C 63.000 106.996,62.925 106.667,62.833 106.667 C 62.742 106.667,62.667 106.404,62.667 106.083 C 62.667 105.716,62.586 105.500,62.450 105.500 C 62.301 105.500,62.255 105.319,62.302 104.917 C 62.354 104.472,62.308 104.333,62.112 104.333 C 61.913 104.333,61.875 104.207,61.944 103.779 C 62.006 103.397,61.951 103.141,61.767 102.958 C 61.600 102.790,61.500 102.405,61.500 101.929 C 61.500 101.430,61.428 101.167,61.292 101.167 C 61.141 101.167,61.099 100.869,61.139 100.084 C 61.184 99.214,61.143 98.980,60.931 98.899 C 60.745 98.828,60.667 98.580,60.667 98.066 C 60.667 97.663,60.592 97.333,60.500 97.333 C 60.408 97.333,60.333 97.071,60.333 96.750 C 60.333 96.429,60.258 96.167,60.167 96.167 C 60.073 96.167,60.000 95.701,60.000 95.104 C 60.000 94.362,59.924 93.978,59.750 93.833 C 59.543 93.661,59.500 93.045,59.500 90.230 C 59.500 87.322,59.536 86.833,59.750 86.833 C 59.935 86.833,60.000 86.639,60.000 86.083 C 60.000 85.671,60.075 85.333,60.167 85.333 C 60.258 85.333,60.333 85.000,60.333 84.593 C 60.333 84.186,60.408 83.807,60.500 83.750 C 60.592 83.693,60.667 83.314,60.667 82.907 C 60.667 82.360,60.732 82.167,60.917 82.167 C 61.101 82.167,61.167 81.973,61.167 81.427 C 61.167 81.019,61.242 80.640,61.333 80.583 C 61.425 80.527,61.500 80.179,61.500 79.812 C 61.500 79.425,61.611 79.032,61.763 78.880 C 61.908 78.735,61.991 78.483,61.948 78.319 C 61.905 78.156,61.974 77.982,62.102 77.933 C 62.229 77.884,62.333 77.696,62.333 77.515 C 62.333 77.334,62.408 77.140,62.500 77.083 C 62.592 77.027,62.667 76.835,62.667 76.657 C 62.667 76.479,62.742 76.333,62.833 76.333 C 62.925 76.333,63.000 76.079,63.000 75.768 C 63.000 75.419,63.096 75.166,63.250 75.106 C 63.415 75.043,63.500 74.782,63.500 74.339 C 63.500 73.969,63.575 73.667,63.667 73.667 C 63.758 73.667,63.833 73.479,63.833 73.250 C 63.833 73.021,63.908 72.833,64.000 72.833 C 64.092 72.833,64.167 72.646,64.167 72.417 C 64.167 72.157,64.261 72.000,64.417 72.000 C 64.572 72.000,64.667 71.843,64.667 71.583 C 64.667 71.354,64.742 71.167,64.833 71.167 C 64.925 71.167,65.000 71.025,65.000 70.851 C 65.000 70.678,65.109 70.494,65.242 70.443 C 65.380 70.390,65.456 70.203,65.418 70.008 C 65.375 69.782,65.440 69.667,65.611 69.667 C 65.803 69.667,65.843 69.560,65.765 69.250 C 65.688 68.943,65.727 68.833,65.913 68.833 C 66.056 68.833,66.167 68.687,66.167 68.500 C 66.167 68.317,66.242 68.167,66.333 68.167 C 66.425 68.167,66.500 67.979,66.500 67.750 C 66.500 67.491,66.594 67.333,66.750 67.333 C 66.906 67.333,67.000 67.176,67.000 66.917 C 67.000 66.688,67.075 66.500,67.167 66.500 C 67.258 66.500,67.333 66.358,67.333 66.184 C 67.333 66.011,67.454 65.823,67.602 65.766 C 67.764 65.704,67.839 65.540,67.791 65.355 C 67.740 65.160,67.855 64.937,68.105 64.750 C 68.322 64.587,68.500 64.341,68.500 64.204 C 68.500 64.067,68.698 63.785,68.941 63.577 C 69.219 63.338,69.344 63.100,69.279 62.932 C 69.214 62.764,69.266 62.667,69.422 62.667 C 69.558 62.667,69.667 62.514,69.667 62.321 C 69.667 61.952,70.027 61.500,70.321 61.500 C 70.420 61.500,70.500 61.318,70.500 61.095 C 70.500 60.802,70.604 60.675,70.875 60.637 C 71.081 60.607,71.250 60.471,71.249 60.333 C 71.249 60.196,71.417 59.918,71.624 59.716 C 71.831 59.514,72.000 59.241,72.000 59.109 C 72.000 58.977,72.195 58.692,72.432 58.476 C 73.286 57.701,73.833 57.115,73.833 56.975 C 73.833 56.897,73.946 56.833,74.083 56.833 C 74.221 56.833,74.315 56.740,74.292 56.625 C 74.269 56.510,74.344 56.435,74.458 56.458 C 74.573 56.481,74.667 56.420,74.667 56.321 C 74.667 56.127,75.077 55.667,75.250 55.667 C 75.389 55.667,75.833 55.222,75.833 55.083 C 75.833 54.910,76.294 54.500,76.488 54.500 C 76.586 54.500,76.667 54.395,76.667 54.266 C 76.667 54.119,76.783 54.062,76.977 54.112 C 77.178 54.165,77.408 54.041,77.626 53.763 C 77.812 53.527,78.051 53.333,78.157 53.333 C 78.263 53.333,78.691 52.996,79.110 52.583 C 79.528 52.171,80.012 51.833,80.185 51.833 C 80.358 51.833,80.500 51.758,80.500 51.667 C 80.500 51.575,80.609 51.500,80.742 51.500 C 80.876 51.500,81.172 51.313,81.402 51.083 C 81.631 50.854,81.929 50.667,82.064 50.667 C 82.199 50.667,82.457 50.479,82.637 50.250 C 82.817 50.021,83.090 49.833,83.244 49.833 C 83.558 49.833,84.000 49.451,84.000 49.179 C 84.000 49.080,84.156 49.000,84.347 49.000 C 84.538 49.000,84.949 48.737,85.261 48.417 C 85.573 48.096,85.925 47.833,86.044 47.833 C 86.162 47.833,86.368 47.683,86.500 47.500 C 86.632 47.317,86.836 47.167,86.953 47.167 C 87.071 47.167,87.167 47.054,87.167 46.917 C 87.167 46.775,87.316 46.667,87.512 46.667 C 87.926 46.667,88.333 46.295,88.333 45.917 C 88.333 45.607,88.718 45.167,88.988 45.167 C 89.086 45.167,89.167 44.979,89.167 44.750 C 89.167 44.521,89.242 44.333,89.333 44.333 C 89.425 44.333,89.500 44.191,89.500 44.018 C 89.500 43.844,89.612 43.659,89.750 43.606 C 89.888 43.554,90.000 43.358,90.000 43.172 C 90.000 42.986,90.075 42.833,90.167 42.833 C 90.258 42.833,90.333 42.646,90.333 42.417 C 90.333 42.188,90.408 42.000,90.500 42.000 C 90.604 42.000,90.667 40.972,90.667 39.250 C 90.667 36.745,90.693 36.499,90.958 36.493 C 92.694 36.449,78.817 30.995,71.750 28.944 C 47.212 21.820,31.017 24.975,43.131 34.518 C 45.909 36.707,45.840 36.818,42.813 35.023 C 37.465 31.852,33.849 28.653,33.065 26.401 C 29.376 15.805,67.298 21.762,90.500 35.424 C 91.554 36.045,92.621 36.658,92.872 36.787 C 93.122 36.916,93.370 37.091,93.423 37.177 C 93.476 37.263,93.920 37.333,94.409 37.333 C 95.045 37.333,95.325 37.404,95.394 37.583 C 95.446 37.721,95.642 37.833,95.828 37.833 C 96.014 37.833,96.167 37.908,96.167 38.000 C 96.167 38.095,96.667 38.167,97.333 38.167 C 98.000 38.167,98.500 38.238,98.500 38.333 C 98.500 38.432,99.108 38.500,99.990 38.500 C 100.810 38.500,101.527 38.575,101.583 38.667 C 101.645 38.766,102.752 38.833,104.343 38.833 C 106.003 38.833,107.000 38.771,107.000 38.667 C 107.000 38.567,107.623 38.501,108.542 38.503 L 110.083 38.506 110.994 39.503 C 111.496 40.051,112.039 40.500,112.203 40.500 C 112.368 40.500,112.500 40.622,112.500 40.776 C 112.500 40.928,113.025 41.564,113.667 42.189 C 114.351 42.856,114.833 43.466,114.833 43.663 C 114.833 43.848,114.908 44.000,115.000 44.000 C 115.092 44.000,115.167 44.262,115.167 44.583 C 115.167 44.904,115.242 45.167,115.333 45.167 C 115.425 45.167,115.500 45.394,115.500 45.672 C 115.500 45.967,115.604 46.217,115.750 46.273 C 115.929 46.342,116.000 46.622,116.000 47.258 C 116.000 47.747,116.075 48.193,116.167 48.250 C 116.258 48.307,116.333 48.761,116.333 49.260 C 116.333 49.759,116.405 50.167,116.493 50.167 C 116.581 50.167,116.675 50.767,116.702 51.501 C 116.730 52.276,116.819 52.818,116.915 52.793 C 117.006 52.769,117.119 52.975,117.167 53.250 C 117.248 53.718,117.300 53.750,118.002 53.750 L 118.750 53.750 118.750 51.791 C 118.750 50.336,118.803 49.833,118.958 49.833 C 119.113 49.833,119.167 49.340,119.167 47.920 L 119.167 46.006 123.208 45.961 L 127.250 45.917 127.302 45.292 C 127.341 44.814,127.292 44.667,127.093 44.667 C 126.950 44.667,126.852 44.573,126.875 44.458 C 126.903 44.320,126.649 44.233,126.125 44.199 C 125.690 44.171,125.333 44.078,125.333 43.991 C 125.333 43.904,125.154 43.833,124.934 43.833 C 124.715 43.833,124.492 43.721,124.440 43.583 C 124.384 43.437,124.134 43.333,123.839 43.333 C 123.561 43.333,123.333 43.258,123.333 43.167 C 123.333 43.075,123.113 43.000,122.843 43.000 C 122.574 43.000,122.307 42.925,122.250 42.833 C 122.193 42.742,122.001 42.667,121.823 42.667 C 121.646 42.667,121.500 42.592,121.500 42.500 C 121.500 42.408,121.313 42.333,121.083 42.333 C 120.824 42.333,120.667 42.239,120.667 42.083 C 120.667 41.946,120.525 41.833,120.351 41.833 C 120.177 41.833,119.858 41.647,119.642 41.420 C 119.427 41.192,119.135 41.004,118.995 41.003 C 118.855 41.001,118.632 40.850,118.500 40.667 C 118.368 40.483,118.145 40.331,118.005 40.328 C 117.722 40.322,117.167 39.947,117.167 39.761 C 117.167 39.587,116.716 39.167,116.530 39.167 C 116.441 39.167,116.326 39.054,116.273 38.917 C 116.220 38.779,116.081 38.667,115.964 38.666 C 115.575 38.666,114.822 37.891,114.931 37.605 C 114.998 37.433,114.924 37.294,114.726 37.218 C 114.362 37.078,113.667 36.412,113.667 36.202 C 113.667 36.122,113.495 35.965,113.286 35.852 C 112.929 35.661,112.740 35.000,113.043 35.000 C 113.340 35.000,113.872 34.342,113.777 34.093 C 113.713 33.926,113.771 33.833,113.940 33.833 C 114.143 33.833,114.187 33.699,114.135 33.250 C 114.088 32.848,114.134 32.667,114.283 32.667 C 114.444 32.667,114.500 32.301,114.500 31.250 C 114.500 30.199,114.444 29.833,114.283 29.833 C 114.134 29.833,114.088 29.652,114.135 29.250 C 114.186 28.810,114.141 28.667,113.951 28.667 C 113.780 28.667,113.726 28.558,113.785 28.335 C 113.839 28.125,113.773 27.966,113.602 27.901 C 113.444 27.840,113.333 27.607,113.333 27.333 C 113.333 27.078,113.233 26.830,113.110 26.783 C 112.965 26.728,112.913 26.517,112.962 26.184 C 113.013 25.834,112.960 25.641,112.793 25.577 C 112.637 25.517,112.578 25.336,112.627 25.075 C 112.689 24.751,112.532 24.504,111.853 23.867 C 111.384 23.427,111.000 22.939,111.000 22.783 C 111.000 22.627,110.925 22.500,110.833 22.500 C 110.742 22.500,110.667 22.313,110.667 22.083 C 110.667 21.836,110.571 21.667,110.432 21.667 C 110.280 21.667,110.228 21.550,110.285 21.335 C 110.339 21.125,110.273 20.966,110.102 20.901 C 109.954 20.844,109.833 20.656,109.833 20.482 C 109.833 20.309,109.758 20.167,109.667 20.167 C 109.575 20.167,109.500 19.979,109.500 19.750 C 109.500 19.521,109.420 19.333,109.321 19.333 C 109.027 19.333,108.667 18.881,108.667 18.512 C 108.667 18.322,108.592 18.167,108.500 18.167 C 108.408 18.167,108.333 17.904,108.333 17.583 C 108.333 17.262,108.253 17.000,108.155 17.000 C 107.861 17.000,107.500 16.548,107.500 16.179 C 107.500 15.989,107.425 15.833,107.333 15.833 C 107.242 15.833,107.167 15.646,107.167 15.417 C 107.167 15.157,107.072 15.000,106.917 15.000 C 106.779 15.000,106.667 14.854,106.667 14.677 C 106.667 14.499,106.592 14.307,106.500 14.250 C 106.408 14.193,106.333 14.001,106.333 13.823 C 106.333 13.646,106.258 13.500,106.167 13.500 C 106.075 13.500,106.000 13.313,106.000 13.083 C 106.000 12.824,105.906 12.667,105.750 12.667 C 105.594 12.667,105.500 12.509,105.500 12.250 C 105.500 12.021,105.425 11.833,105.333 11.833 C 105.242 11.833,105.167 11.720,105.167 11.580 C 105.167 11.441,104.904 11.073,104.583 10.761 C 104.263 10.449,104.000 10.038,104.000 9.847 C 104.000 9.656,103.920 9.500,103.822 9.500 C 103.584 9.500,101.507 7.382,101.627 7.262 C 101.680 7.209,101.597 7.167,101.444 7.167 C 101.292 7.167,101.167 7.092,101.167 7.000 C 101.167 6.908,100.904 6.833,100.583 6.833 C 100.263 6.833,100.000 6.758,100.000 6.667 C 100.000 6.575,99.737 6.500,99.417 6.500 C 99.009 6.500,98.833 6.425,98.833 6.250 C 98.833 6.049,98.574 6.000,97.500 6.000 C 96.722 6.000,96.167 5.931,96.167 5.833 C 96.167 5.742,95.938 5.667,95.659 5.667 C 95.331 5.667,95.014 5.519,94.765 5.250 C 94.545 5.013,94.193 4.833,93.949 4.833 C 93.713 4.833,93.473 4.758,93.417 4.667 C 93.360 4.575,93.200 4.500,93.062 4.500 C 92.923 4.500,92.697 4.388,92.560 4.250 C 92.422 4.113,92.127 4.000,91.905 4.000 C 91.682 4.000,91.500 3.925,91.500 3.833 C 91.500 3.742,91.313 3.667,91.083 3.667 C 90.854 3.667,90.667 3.592,90.667 3.500 C 90.667 3.408,90.525 3.333,90.351 3.333 C 90.178 3.333,89.992 3.221,89.940 3.083 C 89.887 2.946,89.696 2.833,89.515 2.833 C 89.334 2.833,89.140 2.758,89.083 2.667 C 89.027 2.575,88.760 2.500,88.490 2.500 C 88.221 2.500,88.000 2.425,88.000 2.333 C 88.000 2.242,87.625 2.167,87.167 2.167 C 86.537 2.167,86.333 2.106,86.333 1.917 C 86.333 1.742,86.157 1.667,85.750 1.667 C 85.429 1.667,85.167 1.592,85.167 1.500 C 85.167 1.408,84.861 1.333,84.488 1.333 C 84.107 1.333,83.700 1.224,83.560 1.083 C 83.422 0.946,83.132 0.833,82.915 0.833 C 82.697 0.833,82.473 0.758,82.417 0.667 C 82.360 0.575,81.912 0.500,81.421 0.500 C 80.862 0.500,80.502 0.423,80.459 0.295 C 80.392 0.091,67.819 -0.050,64.375 0.115 M76.020 16.817 C 80.581 17.984,83.293 20.500,79.990 20.500 C 76.713 20.500,71.126 17.774,72.200 16.700 C 72.506 16.394,74.617 16.458,76.020 16.817 M28.667 41.649 C 30.381 42.033,30.339 42.046,27.500 42.014 C 13.969 41.861,8.988 54.842,12.093 82.167 C 12.317 84.137,12.548 85.938,12.606 86.167 C 12.664 86.396,12.772 87.146,12.845 87.833 C 12.918 88.521,13.136 90.058,13.328 91.250 C 13.521 92.442,13.716 93.679,13.762 94.000 C 13.869 94.755,14.465 97.435,14.673 98.095 C 14.761 98.377,14.833 98.807,14.833 99.052 C 14.833 99.296,14.974 100.041,15.145 100.706 C 16.192 104.764,16.337 106.192,15.667 105.833 C 14.775 105.356,13.610 102.216,12.419 97.083 C 12.185 96.075,11.888 94.837,11.758 94.333 C 11.108 91.811,10.840 90.642,10.650 89.500 C 10.536 88.813,10.343 87.959,10.221 87.604 C 10.100 87.249,10.001 86.724,10.002 86.437 C 10.003 86.151,9.892 85.392,9.755 84.750 C 9.618 84.108,9.321 82.383,9.094 80.917 C 8.717 78.483,8.562 77.161,8.168 73.000 C 7.945 70.650,8.092 62.678,8.401 60.417 C 10.380 45.902,17.641 39.177,28.667 41.649 M73.000 51.230 C 73.000 51.265,72.346 51.498,71.546 51.747 C 63.749 54.178,59.391 60.510,56.862 73.083 C 56.302 75.866,55.632 80.163,55.420 82.333 C 55.371 82.837,55.295 83.587,55.251 84.000 C 54.992 86.437,54.817 88.605,54.657 91.331 C 54.469 94.545,54.446 94.680,54.141 94.374 C 53.697 93.930,53.590 89.315,53.917 84.750 C 55.277 65.789,59.745 55.778,68.379 52.348 C 69.690 51.827,73.000 51.027,73.000 51.230 M41.167 168.399 C 41.167 168.622,40.948 168.667,39.843 168.667 C 39.115 168.667,38.473 168.742,38.417 168.833 C 38.360 168.925,37.981 169.000,37.573 169.000 C 37.084 169.000,36.833 169.072,36.833 169.213 C 36.833 169.360,36.630 169.406,36.168 169.362 C 35.671 169.315,35.477 169.366,35.400 169.566 C 35.344 169.713,35.118 169.833,34.899 169.833 C 34.679 169.833,34.500 169.908,34.500 170.000 C 34.500 170.092,34.325 170.167,34.111 170.167 C 33.868 170.167,33.640 170.322,33.500 170.583 C 33.358 170.849,33.133 171.000,32.879 171.000 C 32.656 171.000,32.526 171.073,32.583 171.167 C 32.641 171.261,32.506 171.333,32.274 171.333 C 32.047 171.333,31.830 171.427,31.792 171.541 C 31.754 171.655,31.579 171.749,31.403 171.749 C 31.203 171.750,30.994 171.952,30.845 172.292 C 30.714 172.590,30.503 172.833,30.376 172.833 C 30.081 172.833,28.168 174.728,28.163 175.025 C 28.161 175.149,27.899 175.474,27.580 175.748 C 27.261 176.023,27.000 176.379,27.000 176.540 C 27.000 176.701,26.925 176.833,26.833 176.833 C 26.742 176.833,26.667 176.989,26.667 177.179 C 26.667 177.368,26.553 177.637,26.415 177.775 C 26.277 177.914,26.201 178.088,26.248 178.163 C 26.294 178.237,26.219 178.341,26.082 178.394 C 25.945 178.447,25.831 178.698,25.828 178.953 C 25.822 179.472,25.490 180.000,25.168 180.000 C 25.019 180.000,24.984 180.173,25.051 180.583 C 25.122 181.023,25.087 181.167,24.906 181.167 C 24.744 181.167,24.667 181.354,24.667 181.750 C 24.667 182.071,24.592 182.333,24.500 182.333 C 24.408 182.333,24.333 182.746,24.333 183.250 C 24.333 183.754,24.258 184.167,24.167 184.167 C 23.761 184.167,23.986 186.103,24.462 186.702 C 25.544 188.064,28.427 190.753,30.499 192.333 C 30.799 192.563,31.279 192.941,31.564 193.174 C 31.850 193.407,32.271 193.728,32.500 193.887 C 32.729 194.046,33.217 194.401,33.583 194.676 C 34.757 195.555,38.322 197.878,39.917 198.803 C 46.628 202.698,52.972 205.789,59.500 208.348 C 60.646 208.797,61.808 209.278,62.083 209.415 C 62.358 209.553,63.333 209.936,64.250 210.267 C 65.167 210.597,66.854 211.207,68.000 211.622 C 71.384 212.848,76.148 214.383,78.750 215.087 C 79.667 215.335,80.604 215.629,80.833 215.740 C 81.063 215.850,82.037 216.145,83.000 216.394 C 83.962 216.644,85.575 217.067,86.583 217.336 C 92.031 218.785,93.755 219.209,97.083 219.919 C 98.092 220.134,100.004 220.543,101.333 220.827 C 103.482 221.286,106.788 221.928,107.775 222.079 C 107.972 222.109,108.759 222.250,109.525 222.391 C 110.290 222.533,111.742 222.771,112.750 222.921 C 113.758 223.070,115.446 223.331,116.500 223.499 C 117.554 223.668,118.942 223.855,119.583 223.915 C 120.225 223.975,121.388 224.128,122.167 224.257 C 122.946 224.385,123.996 224.524,124.500 224.565 C 125.004 224.606,126.954 224.791,128.833 224.975 C 130.712 225.160,133.600 225.396,135.250 225.501 C 136.900 225.606,139.150 225.751,140.250 225.823 C 142.422 225.966,158.248 225.919,160.417 225.764 C 161.150 225.712,162.506 225.591,163.429 225.497 C 164.353 225.403,165.891 225.253,166.846 225.164 C 167.802 225.076,168.846 224.968,169.167 224.924 C 170.763 224.706,174.392 224.114,175.500 223.890 C 176.188 223.751,176.900 223.618,177.083 223.594 C 177.718 223.513,180.087 222.961,181.083 222.662 C 181.633 222.497,182.796 222.153,183.667 221.897 C 186.274 221.132,191.252 219.124,192.500 218.334 C 192.637 218.247,192.994 218.053,193.292 217.902 C 193.590 217.752,193.833 217.567,193.833 217.492 C 193.833 217.417,194.002 217.303,194.208 217.239 C 194.415 217.174,194.830 216.907,195.131 216.644 C 195.432 216.382,195.762 216.167,195.864 216.167 C 196.110 216.167,199.500 212.822,199.500 212.580 C 199.500 212.476,199.688 212.215,199.917 212.000 C 200.146 211.785,200.333 211.521,200.333 211.413 C 200.333 211.306,200.480 211.085,200.660 210.923 C 200.840 210.760,200.976 210.580,200.962 210.522 C 200.949 210.464,201.063 210.131,201.215 209.782 C 201.367 209.433,201.514 208.983,201.542 208.782 C 201.569 208.581,201.657 208.313,201.736 208.187 C 202.175 207.485,202.127 203.181,201.678 203.032 C 201.580 202.999,201.500 202.826,201.500 202.648 C 201.500 202.469,201.388 202.280,201.251 202.227 C 201.114 202.175,201.046 202.061,201.099 201.975 C 201.152 201.888,201.002 201.623,200.765 201.386 C 200.527 201.149,200.333 200.815,200.333 200.644 C 200.333 200.473,200.221 200.333,200.083 200.333 C 199.946 200.333,199.833 200.269,199.833 200.191 C 199.833 200.000,197.842 198.000,197.651 198.000 C 197.568 198.000,197.500 197.922,197.500 197.828 C 197.500 197.613,196.546 196.667,196.329 196.667 C 196.180 196.667,195.739 196.345,195.243 195.875 C 195.123 195.760,194.904 195.667,194.757 195.667 C 194.610 195.667,194.446 195.554,194.394 195.417 C 194.341 195.279,194.156 195.167,193.982 195.167 C 193.809 195.167,193.667 195.092,193.667 195.000 C 193.667 194.908,193.487 194.833,193.268 194.833 C 193.048 194.833,192.826 194.721,192.773 194.583 C 192.720 194.446,192.525 194.333,192.339 194.333 C 192.152 194.333,192.000 194.258,192.000 194.167 C 192.000 194.075,191.779 194.000,191.510 194.000 C 191.240 194.000,190.973 193.925,190.917 193.833 C 190.860 193.742,190.700 193.667,190.562 193.667 C 190.423 193.667,190.197 193.554,190.060 193.417 C 189.922 193.279,189.627 193.167,189.405 193.167 C 189.182 193.167,189.000 193.092,189.000 193.000 C 189.000 192.908,188.737 192.833,188.417 192.833 C 188.096 192.833,187.833 192.758,187.833 192.667 C 187.833 192.572,187.339 192.500,186.684 192.500 C 185.817 192.500,185.512 192.439,185.440 192.250 C 185.370 192.069,185.088 192.000,184.422 192.000 C 183.915 192.000,183.500 191.925,183.500 191.833 C 183.500 191.742,183.162 191.667,182.750 191.667 C 182.338 191.667,182.000 191.592,182.000 191.500 C 182.000 191.398,181.222 191.333,180.000 191.333 C 178.333 191.333,178.000 191.292,178.000 191.083 C 178.000 190.786,161.605 190.696,161.422 190.992 C 161.368 191.079,161.292 191.586,161.253 192.117 C 161.214 192.649,161.137 193.346,161.083 193.667 C 161.028 193.987,160.961 194.411,160.933 194.608 C 160.857 195.150,159.123 199.553,158.891 199.793 C 158.780 199.908,158.636 200.167,158.572 200.368 C 158.508 200.570,158.372 200.829,158.270 200.945 C 157.980 201.271,157.779 201.530,157.253 202.250 C 156.340 203.501,152.802 206.822,152.375 206.830 C 152.260 206.832,152.167 206.908,152.167 207.000 C 152.167 207.092,152.054 207.167,151.917 207.167 C 151.779 207.167,151.667 207.233,151.667 207.314 C 151.667 207.396,151.385 207.594,151.042 207.756 C 150.698 207.917,150.379 208.095,150.333 208.150 C 150.245 208.257,147.590 209.570,146.333 210.128 C 144.557 210.918,140.060 212.237,138.500 212.426 C 138.179 212.465,137.617 212.571,137.250 212.660 C 134.226 213.399,125.039 213.836,121.010 213.432 C 120.500 213.381,119.596 213.297,119.000 213.245 C 118.084 213.166,114.946 212.793,113.500 212.591 C 112.640 212.472,109.929 211.976,109.841 211.922 C 109.791 211.891,109.450 211.820,109.083 211.763 C 108.717 211.706,108.304 211.626,108.167 211.586 C 108.029 211.546,107.729 211.474,107.500 211.427 C 107.271 211.380,106.479 211.193,105.740 211.013 C 105.001 210.832,104.213 210.647,103.990 210.600 C 103.434 210.485,98.650 209.093,97.417 208.688 C 92.871 207.194,87.169 204.847,83.000 202.755 C 79.672 201.084,79.152 200.810,77.878 200.051 C 77.215 199.656,76.627 199.333,76.571 199.333 C 76.156 199.333,69.375 194.811,66.333 192.506 C 62.270 189.426,57.847 185.239,54.587 181.385 C 51.412 177.631,48.164 172.438,46.919 169.125 L 46.621 168.333 44.158 168.333 C 42.803 168.333,41.575 168.288,41.430 168.232 C 41.257 168.166,41.167 168.223,41.167 168.399 M4.500 175.500 C 4.500 175.592,4.276 175.667,4.002 175.667 C 3.425 175.667,2.833 176.108,2.833 176.537 C 2.833 176.700,2.758 176.833,2.667 176.833 C 2.575 176.833,2.500 177.096,2.500 177.417 C 2.500 177.737,2.425 178.000,2.333 178.000 C 2.237 178.000,2.167 178.528,2.167 179.250 C 2.167 179.972,2.237 180.500,2.333 180.500 C 2.425 180.500,2.500 180.650,2.500 180.833 C 2.500 181.017,2.575 181.167,2.667 181.167 C 2.758 181.167,2.833 181.432,2.833 181.755 C 2.833 182.125,2.926 182.380,3.083 182.440 C 3.253 182.505,3.333 182.771,3.333 183.268 C 3.333 183.671,3.408 184.000,3.500 184.000 C 3.592 184.000,3.667 184.152,3.667 184.339 C 3.667 184.525,3.783 184.722,3.926 184.777 C 4.069 184.832,4.145 184.982,4.096 185.111 C 4.046 185.240,4.117 185.389,4.253 185.441 C 4.389 185.493,4.500 185.624,4.500 185.731 C 4.500 185.838,4.650 186.035,4.833 186.167 C 5.017 186.299,5.167 186.532,5.167 186.686 C 5.167 186.839,5.279 187.008,5.417 187.060 C 5.554 187.113,5.667 187.276,5.667 187.422 C 5.667 187.568,6.454 188.464,7.417 189.413 C 8.379 190.361,9.169 191.238,9.172 191.360 C 9.178 191.625,9.566 192.167,9.749 192.167 C 9.904 192.167,10.666 193.032,10.666 193.208 C 10.667 193.277,10.747 193.333,10.845 193.333 C 11.076 193.333,11.500 193.757,11.500 193.988 C 11.500 194.086,11.556 194.148,11.625 194.126 C 11.783 194.074,13.833 196.135,13.833 196.345 C 13.833 196.430,13.911 196.500,14.006 196.500 C 14.935 196.500,15.943 199.610,15.116 199.927 C 14.994 199.974,14.913 200.223,14.932 200.494 C 14.953 200.795,14.870 201.014,14.714 201.074 C 14.543 201.140,14.486 201.328,14.535 201.662 C 14.580 201.972,14.526 202.185,14.387 202.238 C 14.221 202.302,14.167 202.834,14.167 204.411 C 14.167 205.693,14.102 206.500,14.000 206.500 C 13.901 206.500,13.833 207.139,13.833 208.083 C 13.833 209.239,13.890 209.667,14.042 209.666 C 14.196 209.666,14.236 210.032,14.196 211.083 C 14.153 212.215,14.189 212.500,14.376 212.500 C 14.559 212.500,14.594 212.704,14.535 213.417 C 14.469 214.205,14.499 214.333,14.748 214.333 C 14.976 214.333,15.022 214.441,14.964 214.836 C 14.920 215.134,14.981 215.415,15.112 215.524 C 15.234 215.625,15.333 215.874,15.333 216.078 C 15.333 216.528,15.798 217.500,16.012 217.500 C 16.097 217.500,16.167 217.762,16.167 218.083 C 16.167 218.464,16.245 218.667,16.394 218.667 C 16.546 218.667,16.594 218.804,16.541 219.083 C 16.492 219.339,16.538 219.500,16.659 219.500 C 16.906 219.500,17.245 219.848,17.267 220.125 C 17.303 220.583,17.340 220.667,17.507 220.667 C 17.816 220.667,18.118 221.065,18.039 221.368 C 17.994 221.539,18.075 221.706,18.230 221.765 C 18.378 221.822,18.454 221.940,18.400 222.027 C 18.294 222.199,22.570 226.500,22.847 226.500 C 22.940 226.500,23.190 226.688,23.402 226.917 C 23.614 227.146,23.953 227.333,24.154 227.333 C 24.355 227.333,24.473 227.408,24.417 227.500 C 24.360 227.592,24.431 227.667,24.573 227.667 C 24.716 227.667,24.833 227.742,24.833 227.833 C 24.833 227.925,24.975 228.000,25.149 228.000 C 25.322 228.000,25.508 228.112,25.560 228.250 C 25.613 228.387,25.809 228.500,25.995 228.500 C 26.181 228.500,26.333 228.575,26.333 228.667 C 26.333 228.758,26.521 228.833,26.750 228.833 C 26.990 228.833,27.167 228.929,27.167 229.060 C 27.167 229.208,27.302 229.261,27.557 229.212 C 27.780 229.170,28.061 229.252,28.212 229.402 C 28.357 229.548,28.636 229.667,28.831 229.667 C 29.027 229.667,29.140 229.742,29.083 229.833 C 29.022 229.933,29.220 230.000,29.573 230.000 C 29.900 230.000,30.167 230.075,30.167 230.167 C 30.167 230.258,30.432 230.333,30.755 230.333 C 31.125 230.333,31.380 230.426,31.440 230.583 C 31.505 230.753,31.771 230.833,32.268 230.833 C 32.671 230.833,33.000 230.908,33.000 231.000 C 33.000 231.096,33.532 231.167,34.262 231.167 C 35.161 231.167,35.596 231.238,35.774 231.417 C 35.956 231.599,36.401 231.667,37.419 231.667 C 38.186 231.667,38.860 231.742,38.917 231.833 C 38.977 231.931,39.946 232.000,41.260 232.000 C 42.642 232.000,43.500 232.064,43.500 232.167 C 43.500 232.268,44.244 232.333,45.399 232.333 C 46.933 232.333,47.316 232.381,47.394 232.583 C 47.469 232.780,47.811 232.833,48.995 232.833 C 49.887 232.833,50.500 232.901,50.500 233.000 C 50.500 233.093,50.944 233.167,51.500 233.167 C 52.056 233.167,52.500 233.241,52.500 233.333 C 52.500 233.425,52.650 233.500,52.833 233.500 C 53.017 233.500,53.167 233.575,53.167 233.667 C 53.167 233.758,53.354 233.833,53.583 233.833 C 53.843 233.833,54.000 233.928,54.000 234.083 C 54.000 234.221,54.096 234.333,54.213 234.333 C 54.330 234.333,54.535 234.483,54.667 234.667 C 54.799 234.850,55.006 235.000,55.128 235.000 C 55.250 235.000,55.523 235.188,55.735 235.417 C 55.948 235.646,56.250 235.833,56.406 235.833 C 56.684 235.833,57.167 236.204,57.167 236.417 C 57.167 236.637,57.654 237.000,57.949 237.000 C 58.117 237.000,58.391 237.183,58.559 237.406 C 58.728 237.631,58.967 237.771,59.097 237.722 C 59.225 237.672,59.377 237.752,59.433 237.899 C 59.490 238.046,59.673 238.167,59.841 238.167 C 60.009 238.167,60.193 238.242,60.250 238.333 C 60.307 238.425,60.499 238.500,60.677 238.500 C 60.854 238.500,61.000 238.612,61.000 238.750 C 61.000 238.887,61.112 239.000,61.250 239.000 C 61.387 239.000,61.500 239.075,61.500 239.167 C 61.500 239.258,61.650 239.333,61.833 239.333 C 62.017 239.333,62.167 239.408,62.167 239.500 C 62.167 239.592,62.354 239.667,62.583 239.667 C 62.843 239.667,63.000 239.761,63.000 239.917 C 63.000 240.072,63.157 240.167,63.417 240.167 C 63.646 240.167,63.833 240.242,63.833 240.333 C 63.833 240.425,63.986 240.500,64.172 240.500 C 64.358 240.500,64.554 240.612,64.606 240.750 C 64.659 240.887,64.844 241.000,65.018 241.000 C 65.191 241.000,65.333 241.075,65.333 241.167 C 65.333 241.258,65.521 241.333,65.750 241.333 C 65.979 241.333,66.167 241.408,66.167 241.500 C 66.167 241.592,66.429 241.667,66.750 241.667 C 67.071 241.667,67.333 241.742,67.333 241.833 C 67.333 241.925,67.561 242.000,67.839 242.000 C 68.134 242.000,68.384 242.104,68.440 242.250 C 68.505 242.420,68.771 242.500,69.268 242.500 C 69.671 242.500,70.000 242.575,70.000 242.667 C 70.000 242.758,70.179 242.833,70.399 242.833 C 70.618 242.833,70.841 242.946,70.894 243.083 C 70.957 243.248,71.218 243.333,71.661 243.333 C 72.031 243.333,72.333 243.408,72.333 243.500 C 72.333 243.592,72.656 243.667,73.050 243.667 C 73.444 243.667,73.860 243.760,73.975 243.875 C 74.136 244.036,76.069 244.083,82.500 244.083 C 88.931 244.083,90.864 244.036,91.025 243.875 C 91.140 243.760,91.439 243.667,91.690 243.667 C 91.941 243.667,92.193 243.592,92.250 243.500 C 92.307 243.408,92.527 243.333,92.739 243.333 C 92.952 243.333,93.219 243.221,93.333 243.083 C 93.460 242.931,93.825 242.833,94.270 242.833 C 94.672 242.833,95.000 242.758,95.000 242.667 C 95.000 242.575,95.152 242.500,95.339 242.500 C 95.525 242.500,95.720 242.387,95.773 242.250 C 95.838 242.080,96.104 242.000,96.601 242.000 C 97.004 242.000,97.333 241.925,97.333 241.833 C 97.333 241.742,97.479 241.667,97.657 241.667 C 97.835 241.667,98.027 241.592,98.083 241.500 C 98.140 241.408,98.380 241.333,98.616 241.333 C 98.860 241.333,99.212 241.153,99.431 240.917 C 99.644 240.688,99.933 240.500,100.075 240.500 C 100.217 240.500,100.333 240.425,100.333 240.333 C 100.333 240.242,100.588 240.167,100.899 240.167 C 101.258 240.167,101.501 240.072,101.564 239.906 C 101.619 239.763,101.740 239.692,101.832 239.749 C 101.924 239.806,102.000 239.736,102.000 239.593 C 102.000 239.444,102.143 239.333,102.333 239.333 C 102.517 239.333,102.667 239.258,102.667 239.167 C 102.667 239.075,102.825 239.000,103.018 239.000 C 103.211 239.000,103.516 238.813,103.696 238.583 C 103.877 238.354,104.161 238.167,104.328 238.167 C 104.494 238.167,104.676 238.049,104.731 237.905 C 104.798 237.731,104.944 237.679,105.166 237.750 C 105.367 237.814,105.500 237.780,105.500 237.666 C 105.500 237.422,105.921 237.000,106.165 237.000 C 106.268 237.000,106.307 236.925,106.250 236.833 C 106.193 236.742,106.305 236.667,106.498 236.667 C 106.691 236.667,107.023 236.479,107.235 236.250 C 107.448 236.021,107.717 235.833,107.833 235.833 C 107.949 235.833,108.215 235.635,108.423 235.393 C 108.662 235.114,108.900 234.990,109.068 235.054 C 109.236 235.119,109.333 235.067,109.333 234.911 C 109.333 234.777,109.427 234.665,109.542 234.663 C 109.656 234.661,109.974 234.399,110.248 234.080 C 110.523 233.761,110.879 233.500,111.040 233.500 C 111.201 233.500,111.333 233.425,111.333 233.333 C 111.333 233.242,111.479 233.167,111.657 233.167 C 111.835 233.167,112.027 233.092,112.083 233.000 C 112.140 232.908,112.364 232.833,112.581 232.833 C 112.798 232.833,113.089 232.721,113.226 232.583 C 113.364 232.446,113.723 232.333,114.024 232.333 C 115.191 232.333,114.084 231.859,112.083 231.503 C 108.702 230.900,106.843 230.538,104.500 230.025 C 103.263 229.754,101.650 229.409,100.917 229.258 C 100.183 229.107,98.383 228.678,96.917 228.305 C 95.450 227.932,94.063 227.589,93.833 227.543 C 93.089 227.395,81.093 224.004,80.750 223.845 C 80.567 223.760,79.629 223.457,78.667 223.171 C 77.704 222.885,76.542 222.509,76.083 222.335 C 75.625 222.161,74.462 221.751,73.500 221.424 C 72.537 221.097,71.600 220.761,71.417 220.677 C 71.233 220.593,70.333 220.261,69.417 219.940 C 66.634 218.965,61.488 216.864,58.689 215.560 C 57.831 215.161,57.078 214.833,57.016 214.833 C 56.954 214.833,55.706 214.243,54.243 213.520 C 52.780 212.798,51.246 212.044,50.833 211.843 C 50.421 211.643,49.933 211.389,49.750 211.279 C 49.567 211.169,48.593 210.633,47.586 210.089 C 46.580 209.545,45.305 208.815,44.753 208.468 C 44.201 208.121,43.525 207.715,43.250 207.566 C 42.765 207.302,38.994 204.800,37.939 204.041 C 37.431 203.676,36.862 203.266,35.667 202.403 C 32.878 200.389,27.211 194.789,26.354 193.200 C 26.229 192.966,26.055 192.695,25.970 192.596 C 25.129 191.630,23.440 188.247,23.245 187.138 C 23.088 186.245,22.521 185.516,21.976 185.505 C 21.826 185.502,21.659 185.387,21.606 185.250 C 21.554 185.112,21.358 185.000,21.172 185.000 C 20.986 185.000,20.833 184.925,20.833 184.833 C 20.833 184.742,20.681 184.667,20.495 184.667 C 20.309 184.667,20.113 184.554,20.060 184.417 C 20.008 184.279,19.827 184.167,19.659 184.167 C 19.491 184.167,19.307 184.092,19.250 184.000 C 19.193 183.908,19.029 183.833,18.884 183.833 C 18.740 183.833,18.448 183.646,18.235 183.417 C 18.023 183.188,17.750 183.000,17.628 183.000 C 17.506 183.000,17.299 182.850,17.167 182.667 C 17.035 182.483,16.763 182.333,16.564 182.333 C 16.365 182.333,16.159 182.221,16.106 182.083 C 16.054 181.946,15.875 181.833,15.709 181.833 C 15.543 181.833,15.299 181.683,15.167 181.500 C 15.035 181.317,14.811 181.167,14.670 181.167 C 14.529 181.167,14.189 180.906,13.915 180.587 C 13.639 180.266,13.258 180.006,13.059 180.004 C 12.863 180.002,12.659 179.887,12.606 179.750 C 12.554 179.612,12.396 179.500,12.255 179.500 C 12.111 179.500,12.000 179.355,12.000 179.167 C 12.000 178.927,11.889 178.833,11.603 178.833 C 11.362 178.833,11.097 178.668,10.932 178.417 C 10.782 178.188,10.538 178.000,10.391 178.000 C 10.243 178.000,9.875 177.737,9.573 177.417 C 9.270 177.096,8.880 176.833,8.706 176.833 C 8.532 176.833,8.289 176.646,8.167 176.417 C 8.044 176.188,7.811 176.000,7.648 176.000 C 7.486 176.000,7.307 175.925,7.250 175.833 C 7.193 175.742,6.739 175.667,6.240 175.667 C 5.741 175.667,5.333 175.592,5.333 175.500 C 5.333 175.408,5.146 175.333,4.917 175.333 C 4.688 175.333,4.500 175.408,4.500 175.500 " stroke="none" fill="#5c047c" fill-rule="evenodd"></path><path id="path2" d="M38.583 21.170 C 38.217 21.237,38.667 21.254,39.583 21.206 C 40.500 21.159,41.281 21.094,41.319 21.060 C 41.440 20.955,39.280 21.042,38.583 21.170 M43.958 21.121 C 44.256 21.158,44.744 21.158,45.042 21.121 C 45.340 21.084,45.096 21.053,44.500 21.053 C 43.904 21.053,43.660 21.084,43.958 21.121 M46.458 21.284 C 46.665 21.324,47.002 21.324,47.208 21.284 C 47.415 21.245,47.246 21.212,46.833 21.212 C 46.421 21.212,46.252 21.245,46.458 21.284 M36.167 21.647 C 34.321 22.243,32.837 23.402,32.835 24.250 C 32.835 24.342,32.990 24.161,33.180 23.849 C 33.817 22.805,35.092 22.047,36.986 21.587 C 37.498 21.463,37.729 21.359,37.500 21.356 C 37.271 21.353,36.671 21.484,36.167 21.647 M48.292 21.451 C 48.498 21.491,48.835 21.491,49.042 21.451 C 49.248 21.411,49.079 21.379,48.667 21.379 C 48.254 21.379,48.085 21.411,48.292 21.451 M47.701 24.957 C 48.316 24.989,49.366 24.989,50.034 24.957 C 50.703 24.926,50.200 24.899,48.917 24.899 C 47.633 24.899,47.086 24.925,47.701 24.957 M44.792 25.118 C 44.998 25.157,45.335 25.157,45.542 25.118 C 45.748 25.078,45.579 25.045,45.167 25.045 C 44.754 25.045,44.585 25.078,44.792 25.118 M52.208 25.119 C 52.460 25.158,52.873 25.158,53.125 25.119 C 53.377 25.081,53.171 25.050,52.667 25.050 C 52.163 25.050,51.956 25.081,52.208 25.119 M43.333 25.333 L 42.917 25.467 43.333 25.472 C 43.563 25.474,43.900 25.412,44.083 25.333 L 44.417 25.190 44.083 25.195 C 43.900 25.198,43.563 25.260,43.333 25.333 M54.127 25.285 C 54.334 25.324,54.634 25.323,54.794 25.281 C 54.953 25.239,54.783 25.207,54.417 25.209 C 54.050 25.211,53.920 25.245,54.127 25.285 M55.542 25.448 C 55.702 25.490,55.965 25.490,56.125 25.448 C 56.285 25.406,56.154 25.372,55.833 25.372 C 55.512 25.372,55.381 25.406,55.542 25.448 M41.500 25.917 C 41.271 26.048,41.158 26.155,41.250 26.155 C 41.342 26.155,41.604 26.048,41.833 25.917 C 42.063 25.786,42.175 25.678,42.083 25.678 C 41.992 25.678,41.729 25.786,41.500 25.917 M57.708 25.782 C 57.869 25.823,58.131 25.823,58.292 25.782 C 58.452 25.740,58.321 25.705,58.000 25.705 C 57.679 25.705,57.548 25.740,57.708 25.782 M40.187 26.614 C 39.573 27.098,39.003 28.176,39.015 28.833 C 39.020 29.098,39.100 28.961,39.236 28.458 C 39.430 27.735,39.823 27.094,40.250 26.803 C 40.785 26.439,41.062 26.177,40.917 26.174 C 40.825 26.172,40.497 26.370,40.187 26.614 M35.417 29.667 C 35.775 30.033,36.105 30.333,36.151 30.333 C 36.197 30.333,35.941 30.033,35.583 29.667 C 35.225 29.300,34.895 29.000,34.849 29.000 C 34.803 29.000,35.059 29.300,35.417 29.667 M26.960 41.951 C 27.168 41.991,27.468 41.990,27.627 41.948 C 27.786 41.906,27.617 41.874,27.250 41.875 C 26.883 41.877,26.753 41.911,26.960 41.951 M29.417 42.000 C 29.095 42.138,29.096 42.144,29.448 42.155 C 29.649 42.161,29.860 42.092,29.917 42.000 C 30.039 41.803,29.875 41.803,29.417 42.000 M17.161 45.792 L 16.250 46.750 17.208 45.839 C 17.735 45.338,18.167 44.907,18.167 44.881 C 18.167 44.757,18.007 44.901,17.161 45.792 M15.667 47.500 C 15.471 47.775,15.348 48.000,15.394 48.000 C 15.440 48.000,15.638 47.775,15.833 47.500 C 16.029 47.225,16.152 47.000,16.106 47.000 C 16.060 47.000,15.862 47.225,15.667 47.500 M14.242 49.850 C 14.005 50.317,13.839 50.728,13.873 50.762 C 13.907 50.796,14.136 50.414,14.382 49.912 C 14.628 49.410,14.794 49.000,14.751 49.000 C 14.708 49.000,14.478 49.382,14.242 49.850 M9.595 54.262 C 9.534 54.506,9.516 54.738,9.555 54.777 C 9.594 54.817,9.677 54.649,9.738 54.405 C 9.799 54.161,9.817 53.929,9.778 53.889 C 9.739 53.850,9.657 54.018,9.595 54.262 M12.429 54.929 C 12.367 55.173,12.349 55.405,12.389 55.444 C 12.428 55.483,12.510 55.316,12.571 55.071 C 12.633 54.827,12.651 54.595,12.611 54.556 C 12.572 54.517,12.490 54.684,12.429 54.929 M11.926 57.093 C 11.863 57.427,11.845 57.734,11.886 57.775 C 11.927 57.816,12.011 57.575,12.074 57.241 C 12.137 56.906,12.155 56.599,12.114 56.559 C 12.073 56.518,11.989 56.758,11.926 57.093 M8.779 57.815 C 8.717 58.123,8.675 58.534,8.685 58.729 C 8.695 58.924,8.770 58.746,8.851 58.333 C 8.932 57.921,8.974 57.510,8.944 57.419 C 8.915 57.329,8.840 57.507,8.779 57.815 M8.539 59.667 C 8.539 59.987,8.573 60.119,8.615 59.958 C 8.657 59.798,8.657 59.535,8.615 59.375 C 8.573 59.215,8.539 59.346,8.539 59.667 M11.347 61.206 C 10.882 65.509,10.952 72.745,11.517 78.750 C 11.612 79.758,11.716 80.883,11.749 81.250 C 11.781 81.617,11.931 82.892,12.082 84.083 C 12.233 85.275,12.424 86.806,12.507 87.485 C 12.741 89.416,13.844 95.591,14.832 100.500 C 15.234 102.495,15.412 104.333,15.203 104.333 C 14.599 104.333,12.318 96.647,11.074 90.417 C 10.641 88.252,10.525 87.752,10.344 87.278 C 10.245 87.018,10.199 86.750,10.240 86.682 C 10.282 86.615,10.205 86.040,10.068 85.405 C 9.932 84.770,9.785 83.987,9.742 83.667 C 9.699 83.346,9.546 82.408,9.402 81.583 C 9.026 79.425,8.872 78.312,8.677 76.333 C 8.582 75.371,8.465 74.208,8.417 73.750 C 8.369 73.292,8.284 71.117,8.227 68.917 C 8.170 66.717,8.091 64.880,8.050 64.836 C 7.937 64.710,8.043 71.404,8.180 73.000 C 8.571 77.549,9.167 81.995,9.755 84.750 C 9.892 85.392,10.003 86.151,10.002 86.437 C 10.001 86.724,10.100 87.249,10.221 87.604 C 10.343 87.959,10.536 88.813,10.650 89.500 C 10.840 90.642,11.108 91.811,11.758 94.333 C 11.888 94.837,12.185 96.075,12.419 97.083 C 13.610 102.216,14.775 105.356,15.667 105.833 C 16.337 106.192,16.192 104.764,15.145 100.706 C 14.974 100.041,14.833 99.296,14.833 99.052 C 14.833 98.807,14.761 98.377,14.673 98.095 C 14.465 97.435,13.869 94.755,13.762 94.000 C 13.716 93.679,13.521 92.442,13.328 91.250 C 13.136 90.058,12.918 88.521,12.845 87.833 C 12.772 87.146,12.664 86.396,12.606 86.167 C 12.463 85.605,11.736 79.164,11.477 76.167 C 11.190 72.843,11.190 64.127,11.477 61.532 C 11.602 60.404,11.669 59.447,11.627 59.405 C 11.585 59.362,11.459 60.173,11.347 61.206 M8.248 61.891 C 8.183 62.760,8.163 63.571,8.204 63.694 C 8.245 63.816,8.333 63.139,8.398 62.189 C 8.464 61.240,8.484 60.428,8.442 60.386 C 8.400 60.345,8.313 61.022,8.248 61.891 M54.372 79.333 C 54.372 79.654,54.406 79.785,54.448 79.625 C 54.490 79.465,54.490 79.202,54.448 79.042 C 54.406 78.881,54.372 79.012,54.372 79.333 M55.603 79.769 C 55.542 80.289,55.525 80.747,55.565 80.788 C 55.606 80.828,55.692 80.439,55.756 79.923 C 55.821 79.407,55.838 78.949,55.794 78.905 C 55.750 78.861,55.664 79.250,55.603 79.769 M54.205 81.167 C 54.205 81.487,54.240 81.619,54.282 81.458 C 54.323 81.298,54.323 81.035,54.282 80.875 C 54.240 80.715,54.205 80.846,54.205 81.167 M55.209 83.250 C 55.211 83.617,55.245 83.747,55.285 83.540 C 55.324 83.332,55.323 83.032,55.281 82.873 C 55.239 82.714,55.207 82.883,55.209 83.250 M54.045 83.500 C 54.045 83.912,54.078 84.081,54.118 83.875 C 54.157 83.669,54.157 83.331,54.118 83.125 C 54.078 82.919,54.045 83.087,54.045 83.500 M55.039 85.000 C 55.039 85.321,55.073 85.452,55.115 85.292 C 55.157 85.131,55.157 84.869,55.115 84.708 C 55.073 84.548,55.039 84.679,55.039 85.000 M53.892 86.417 C 53.892 87.242,53.920 87.600,53.955 87.213 C 53.990 86.827,53.990 86.152,53.956 85.713 C 53.922 85.275,53.893 85.592,53.892 86.417 M54.881 86.583 C 54.882 87.042,54.915 87.209,54.953 86.956 C 54.991 86.703,54.990 86.328,54.951 86.123 C 54.911 85.918,54.880 86.125,54.881 86.583 M54.539 90.358 C 54.325 93.452,54.109 94.001,53.907 91.969 C 53.826 91.165,53.740 90.793,53.702 91.083 C 53.532 92.372,54.035 94.854,54.394 94.495 C 54.506 94.383,54.898 87.843,54.799 87.744 C 54.758 87.703,54.641 88.880,54.539 90.358 M24.000 186.277 C 24.000 186.367,24.206 186.624,24.458 186.846 L 24.917 187.250 24.500 186.750 C 24.271 186.475,24.065 186.219,24.042 186.181 C 24.019 186.142,24.000 186.186,24.000 186.277 M202.067 205.899 C 202.018 206.027,202.003 206.421,202.035 206.774 C 202.087 207.369,202.097 207.352,202.171 206.542 C 202.252 205.648,202.225 205.486,202.067 205.899 M201.754 208.035 C 201.552 208.669,201.519 208.870,201.638 208.751 C 201.699 208.690,201.756 208.589,201.764 208.528 C 201.772 208.467,201.838 208.282,201.910 208.118 C 201.982 207.953,202.004 207.782,201.958 207.736 C 201.913 207.691,201.821 207.825,201.754 208.035 M201.100 210.017 C 200.905 210.407,200.898 210.487,201.070 210.345 C 201.275 210.174,201.549 209.500,201.413 209.500 C 201.383 209.500,201.242 209.733,201.100 210.017 M200.609 210.971 C 200.457 211.139,200.333 211.341,200.333 211.421 C 200.333 211.500,200.127 211.794,199.875 212.074 L 199.417 212.583 199.958 212.094 C 200.256 211.825,200.500 211.530,200.500 211.440 C 200.500 211.350,200.624 211.139,200.776 210.971 C 200.928 210.804,201.014 210.667,200.968 210.667 C 200.922 210.667,200.761 210.804,200.609 210.971 M198.661 213.625 L 197.750 214.583 198.708 213.672 C 199.235 213.171,199.667 212.740,199.667 212.714 C 199.667 212.590,199.507 212.735,198.661 213.625 M188.750 220.089 C 188.475 220.215,188.367 220.322,188.510 220.326 C 188.653 220.330,188.915 220.223,189.093 220.089 C 189.488 219.790,189.404 219.790,188.750 220.089 M166.127 225.285 C 166.334 225.324,166.634 225.323,166.794 225.281 C 166.953 225.239,166.783 225.207,166.417 225.209 C 166.050 225.211,165.920 225.245,166.127 225.285 M133.294 225.451 C 133.501 225.491,133.801 225.490,133.960 225.448 C 134.120 225.406,133.950 225.374,133.583 225.375 C 133.217 225.377,133.086 225.411,133.294 225.451 M135.211 225.620 C 135.464 225.658,135.839 225.657,136.044 225.617 C 136.249 225.578,136.042 225.546,135.583 225.548 C 135.125 225.549,134.957 225.581,135.211 225.620 M138.292 225.784 C 138.498 225.824,138.835 225.824,139.042 225.784 C 139.248 225.745,139.079 225.712,138.667 225.712 C 138.254 225.712,138.085 225.745,138.292 225.784 M143.042 225.948 C 143.202 225.990,143.465 225.990,143.625 225.948 C 143.785 225.906,143.654 225.872,143.333 225.872 C 143.012 225.872,142.881 225.906,143.042 225.948 M148.458 226.122 C 148.848 226.157,149.485 226.157,149.875 226.122 C 150.265 226.087,149.946 226.058,149.167 226.058 C 148.387 226.058,148.069 226.087,148.458 226.122 " stroke="none" fill="#935ba8" fill-rule="evenodd"></path><path id="path3" d="M42.042 21.115 C 42.202 21.157,42.465 21.157,42.625 21.115 C 42.785 21.073,42.654 21.039,42.333 21.039 C 42.012 21.039,41.881 21.073,42.042 21.115 M8.205 64.333 C 8.205 64.654,8.240 64.785,8.282 64.625 C 8.323 64.465,8.323 64.202,8.282 64.042 C 8.240 63.881,8.205 64.012,8.205 64.333 M8.205 70.000 C 8.205 70.321,8.240 70.452,8.282 70.292 C 8.323 70.131,8.323 69.869,8.282 69.708 C 8.240 69.548,8.205 69.679,8.205 70.000 M11.214 75.917 C 11.216 76.375,11.248 76.543,11.286 76.289 C 11.325 76.036,11.324 75.661,11.284 75.456 C 11.244 75.251,11.213 75.458,11.214 75.917 M12.039 84.500 C 12.039 84.821,12.073 84.952,12.115 84.792 C 12.157 84.631,12.157 84.369,12.115 84.208 C 12.073 84.048,12.039 84.179,12.039 84.500 M53.883 88.667 C 53.883 89.171,53.915 89.377,53.953 89.125 C 53.991 88.873,53.991 88.460,53.953 88.208 C 53.915 87.956,53.883 88.162,53.883 88.667 M13.042 91.417 C 13.044 91.783,13.078 91.914,13.118 91.706 C 13.158 91.499,13.156 91.199,13.115 91.040 C 13.073 90.880,13.040 91.050,13.042 91.417 M54.000 92.843 C 54.000 93.141,54.069 93.310,54.167 93.250 C 54.258 93.193,54.333 92.964,54.333 92.740 C 54.333 92.516,54.258 92.333,54.167 92.333 C 54.075 92.333,54.000 92.563,54.000 92.843 M15.000 102.222 C 15.000 102.922,14.808 102.998,14.406 102.458 C 14.096 102.043,14.131 102.175,14.674 103.458 C 15.195 104.688,15.367 104.560,15.235 103.042 C 15.112 101.640,15.000 101.248,15.000 102.222 M65.372 114.833 C 65.372 115.154,65.406 115.285,65.448 115.125 C 65.490 114.965,65.490 114.702,65.448 114.542 C 65.406 114.381,65.372 114.513,65.372 114.833 M42.708 168.291 C 43.419 168.322,44.581 168.322,45.292 168.291 C 46.002 168.259,45.421 168.234,44.000 168.234 C 42.579 168.234,41.998 168.259,42.708 168.291 " stroke="none" fill="#ac7cbc" fill-rule="evenodd"></path><path id="path4" d="M38.750 21.338 C 38.372 21.408,38.769 21.424,39.667 21.375 C 40.537 21.327,41.281 21.261,41.319 21.227 C 41.439 21.122,39.448 21.208,38.750 21.338 M44.292 21.287 C 44.590 21.324,45.077 21.324,45.375 21.287 C 45.673 21.250,45.429 21.220,44.833 21.220 C 44.237 21.220,43.994 21.250,44.292 21.287 M46.792 21.451 C 46.998 21.491,47.335 21.491,47.542 21.451 C 47.748 21.411,47.579 21.379,47.167 21.379 C 46.754 21.379,46.585 21.411,46.792 21.451 M36.333 21.814 C 34.506 22.405,32.979 23.561,33.011 24.330 C 33.018 24.501,33.066 24.476,33.160 24.250 C 33.590 23.223,34.824 22.423,36.917 21.814 C 37.467 21.655,37.767 21.522,37.583 21.521 C 37.400 21.519,36.837 21.651,36.333 21.814 M48.542 21.615 C 48.702 21.657,48.965 21.657,49.125 21.615 C 49.285 21.573,49.154 21.539,48.833 21.539 C 48.512 21.539,48.381 21.573,48.542 21.615 M45.250 24.833 L 44.583 24.953 45.198 24.976 C 45.537 24.989,45.860 24.925,45.917 24.833 C 45.973 24.742,45.996 24.677,45.968 24.690 C 45.940 24.703,45.617 24.768,45.250 24.833 M47.708 24.790 C 48.327 24.822,49.340 24.822,49.958 24.790 C 50.577 24.758,50.071 24.732,48.833 24.732 C 47.596 24.732,47.090 24.758,47.708 24.790 M43.000 25.207 C 42.587 25.302,42.325 25.404,42.417 25.435 C 42.508 25.466,42.996 25.389,43.500 25.264 C 44.561 25.001,44.120 24.951,43.000 25.207 M54.042 25.115 C 54.202 25.157,54.465 25.157,54.625 25.115 C 54.785 25.073,54.654 25.039,54.333 25.039 C 54.012 25.039,53.881 25.073,54.042 25.115 M41.040 25.854 C 40.321 26.185,39.167 27.206,39.167 27.511 C 39.167 27.603,39.410 27.401,39.707 27.063 C 40.004 26.725,40.698 26.235,41.248 25.974 C 41.799 25.713,42.137 25.507,42.000 25.514 C 41.862 25.522,41.431 25.675,41.040 25.854 M41.660 33.375 C 42.350 34.111,42.500 34.243,42.500 34.118 C 42.500 34.091,42.144 33.735,41.708 33.326 L 40.917 32.583 41.660 33.375 M16.909 45.875 L 16.250 46.583 16.958 45.925 C 17.617 45.312,17.743 45.167,17.617 45.167 C 17.590 45.167,17.271 45.485,16.909 45.875 M11.926 56.259 C 11.863 56.594,11.845 56.901,11.886 56.941 C 11.927 56.982,12.011 56.742,12.074 56.407 C 12.137 56.073,12.155 55.766,12.114 55.725 C 12.073 55.684,11.989 55.925,11.926 56.259 M8.917 58.000 C 8.852 58.470,8.834 58.890,8.877 58.933 C 8.920 58.976,9.007 58.625,9.069 58.153 C 9.132 57.681,9.150 57.261,9.109 57.220 C 9.068 57.179,8.981 57.530,8.917 58.000 M8.705 59.667 C 8.705 59.987,8.740 60.119,8.782 59.958 C 8.823 59.798,8.823 59.535,8.782 59.375 C 8.740 59.215,8.705 59.346,8.705 59.667 M8.416 61.865 C 8.352 62.720,8.328 63.607,8.363 63.835 C 8.398 64.063,8.483 63.396,8.551 62.352 C 8.619 61.307,8.643 60.421,8.604 60.382 C 8.565 60.343,8.480 61.010,8.416 61.865 M11.212 61.167 C 11.212 61.579,11.245 61.748,11.284 61.542 C 11.324 61.335,11.324 60.998,11.284 60.792 C 11.245 60.585,11.212 60.754,11.212 61.167 M10.877 63.251 C 10.927 63.343,10.919 64.230,10.857 65.223 C 10.796 66.216,10.793 67.058,10.851 67.094 C 11.037 67.209,11.139 63.431,10.954 63.250 C 10.841 63.139,10.815 63.139,10.877 63.251 M8.206 67.000 C 8.203 68.237,8.251 69.434,8.314 69.659 C 8.377 69.884,8.404 69.022,8.373 67.743 C 8.300 64.615,8.213 64.232,8.206 67.000 M10.766 69.707 C 10.906 74.880,11.096 77.821,11.521 81.417 C 11.618 82.242,11.760 83.554,11.836 84.333 C 12.081 86.838,12.329 88.691,12.444 88.877 C 12.505 88.977,12.647 89.814,12.759 90.737 C 13.002 92.734,13.568 95.886,13.915 97.167 C 14.051 97.671,14.164 98.353,14.165 98.683 C 14.166 99.014,14.247 99.514,14.346 99.797 C 14.444 100.079,14.499 100.521,14.467 100.780 C 14.398 101.349,13.637 100.053,13.422 99.000 C 13.357 98.679,13.197 98.093,13.067 97.698 C 12.767 96.787,12.349 95.021,11.243 90.000 C 10.909 88.487,10.578 86.875,10.506 86.417 C 10.369 85.541,9.461 80.236,9.180 78.667 C 9.090 78.162,8.934 76.850,8.833 75.750 C 8.461 71.674,8.377 70.930,8.356 71.500 C 8.298 73.104,9.086 79.945,9.661 82.833 C 9.744 83.246,9.934 84.296,10.084 85.167 C 10.402 87.004,11.066 90.272,11.441 91.833 C 11.583 92.429,11.730 93.076,11.766 93.271 C 11.803 93.465,12.104 94.665,12.436 95.937 C 12.768 97.209,13.093 98.513,13.159 98.833 C 13.691 101.424,15.000 103.798,15.000 102.171 C 15.000 101.538,14.859 100.736,14.161 97.417 C 13.349 93.557,13.028 91.651,12.505 87.583 C 12.422 86.942,12.277 85.929,12.181 85.333 C 11.905 83.620,11.512 80.062,11.408 78.342 C 11.355 77.476,11.284 76.721,11.249 76.664 C 11.188 76.566,10.985 71.888,10.934 69.385 C 10.920 68.726,10.866 68.144,10.814 68.092 C 10.762 68.040,10.741 68.767,10.766 69.707 M54.539 79.167 C 54.539 79.487,54.573 79.619,54.615 79.458 C 54.657 79.298,54.657 79.035,54.615 78.875 C 54.573 78.715,54.539 78.846,54.539 79.167 M54.381 80.750 C 54.382 81.208,54.415 81.376,54.453 81.123 C 54.491 80.869,54.490 80.494,54.451 80.289 C 54.411 80.084,54.380 80.292,54.381 80.750 M54.223 82.833 C 54.223 83.521,54.252 83.802,54.288 83.458 C 54.324 83.115,54.324 82.552,54.288 82.208 C 54.252 81.865,54.223 82.146,54.223 82.833 M55.042 83.250 C 55.044 83.617,55.078 83.747,55.118 83.540 C 55.158 83.332,55.156 83.032,55.115 82.873 C 55.073 82.714,55.040 82.883,55.042 83.250 M54.058 85.833 C 54.058 86.612,54.087 86.931,54.122 86.542 C 54.157 86.152,54.157 85.515,54.122 85.125 C 54.087 84.735,54.058 85.054,54.058 85.833 M54.712 86.667 C 54.712 87.079,54.745 87.248,54.784 87.042 C 54.824 86.835,54.824 86.498,54.784 86.292 C 54.745 86.085,54.712 86.254,54.712 86.667 M54.548 88.917 C 54.549 89.375,54.581 89.543,54.620 89.289 C 54.658 89.036,54.657 88.661,54.617 88.456 C 54.578 88.251,54.546 88.458,54.548 88.917 M54.349 90.500 C 54.317 91.161,54.293 91.203,54.153 90.851 C 54.065 90.631,53.959 90.486,53.917 90.527 C 53.792 90.653,54.036 92.333,54.180 92.333 C 54.363 92.333,54.542 91.035,54.457 90.329 C 54.393 89.799,54.384 89.813,54.349 90.500 M23.416 187.236 C 23.455 187.594,23.568 187.968,23.665 188.065 C 23.790 188.190,23.795 188.097,23.681 187.746 C 23.592 187.473,23.480 187.100,23.432 186.917 C 23.383 186.733,23.376 186.877,23.416 187.236 M26.500 193.274 C 26.500 193.364,26.744 193.658,27.042 193.927 L 27.583 194.417 27.083 193.834 C 26.808 193.514,26.565 193.220,26.542 193.181 C 26.519 193.143,26.500 193.185,26.500 193.274 M199.240 213.208 L 198.750 213.750 199.292 213.260 C 199.797 212.804,199.910 212.667,199.781 212.667 C 199.752 212.667,199.509 212.910,199.240 213.208 M196.575 215.708 L 195.917 216.417 196.625 215.758 C 197.284 215.145,197.410 215.000,197.284 215.000 C 197.257 215.000,196.938 215.319,196.575 215.708 M130.208 225.282 C 130.369 225.323,130.631 225.323,130.792 225.282 C 130.952 225.240,130.821 225.205,130.500 225.205 C 130.179 225.205,130.048 225.240,130.208 225.282 M157.792 225.954 C 158.090 225.991,158.577 225.991,158.875 225.954 C 159.173 225.917,158.929 225.887,158.333 225.887 C 157.737 225.887,157.494 225.917,157.792 225.954 M153.208 226.121 C 153.552 226.157,154.115 226.157,154.458 226.121 C 154.802 226.085,154.521 226.056,153.833 226.056 C 153.146 226.056,152.865 226.085,153.208 226.121 " stroke="none" fill="#ac84bc" fill-rule="evenodd"></path></g></svg>